<svg id="SvgjsSvg1001" width="288" height="288" xmlns="http://www.w3.org/2000/svg" version="1.1" xmlns:xlink="http://www.w3.org/1999/xlink" xmlns:svgjs="http://svgjs.com/svgjs"><defs id="SvgjsDefs1002"></defs><g id="SvgjsG1008" transform="matrix(1,0,0,1,0,0)"><svg xmlns="http://www.w3.org/2000/svg" xmlns:xlink="http://www.w3.org/1999/xlink" enable-background="new 0 0 496.5 428.5" viewBox="0 0 496.5 428.5" width="288" height="288"><path fill="#90a0a4" d="M297,386.4c0,0,83.7-20.3,135.4-65.7s68.1-113,37.7-171S352.1,82.6,289.5,38S145.9-14.7,93,45.9			s-9.1,94.9-22.5,173.9S102,426.1,297,386.4z" class="coloref9c80 svgShape"></path><path fill="#ffffff" d="M297,386.4c0,0,83.7-20.3,135.4-65.7s68.1-113,37.7-171S352.1,82.6,289.5,38S145.9-14.7,93,45.9
			s-9.1,94.9-22.5,173.9S102,426.1,297,386.4z" enable-background="new" opacity=".7" class="colorfff svgShape"></path><defs><rect id="a" width="76.2" height="222.9" y="205.6" fill="#000000" class="color000 svgShape"></rect></defs><clipPath id="b"><use overflow="visible" xlink:href="#a"></use></clipPath><g clip-path="url(#b)" fill="#000000" class="color000 svgShape"><path fill="#90a0a4" d="M86.7,256.9c0.1,0,1.3-4.7,1.3-5c0.5-3.5-0.6-10.8-4.3-12.6c-2.4-1.1-5.3,0-6.3,2.4
						c-0.1,0.2-0.1,0.3-0.2,0.5c-1,2.7,0.3,6,1.7,8.2C80.7,253.1,86.7,256.9,86.7,256.9z" class="coloref9c80 svgShape"></path><path fill="#90a0a4" d="M107.9,231.1c-4-0.4-8.8,5.1-10.3,8.4c-0.1,0.3-1.6,5-1.5,5h0.1c-0.8,0.9-1.6,1.8-2.4,2.8
						c-1.6,1.9-3.3,4.1-5.1,6.7c-1.9,2.7-3.7,5.5-5.3,8.4c-1.8,3.2-3.3,6.6-4.5,10.2v0.1c0-1.2,0-4.5-0.1-4.8
						c-0.5-3.6-3.5-10.3-7.5-11c-2.6-0.4-5.1,1.4-5.5,4c0,0.2,0,0.4-0.1,0.5c-0.2,2.8,1.8,5.7,3.8,7.5c2.3,2,8.6,4,9.1,4.2
						c-1.1,3.6-2.1,7.2-2.7,10.9c-0.4,2.2-0.7,4.4-1,6.6c0-1,0-1.9,0-2.1c-0.5-3.6-3.5-10.3-7.5-11c-2.6-0.4-5.1,1.4-5.5,4
						c0,0.2,0,0.3-0.1,0.5c-0.2,2.9,1.8,5.7,3.8,7.5c2,1.8,7.4,3.6,8.8,4.1l-0.3,2.5c-0.5,4.1-1,8.1-1.5,12.1
						c-0.2,1.4-0.5,2.8-0.7,4.1c0-0.9,0-1.7,0-1.8c-0.5-3.6-3.5-10.3-7.5-11c-2.6-0.4-5.1,1.4-5.5,4c0,0.2,0,0.4-0.1,0.5
						c-0.2,2.8,1.8,5.7,3.8,7.5c2,1.8,6.9,3.4,8.6,4c-0.3,1.4-0.6,2.8-0.9,4.1c-0.3,0.9-0.4,1.8-0.8,2.7c-0.3,0.9-0.6,1.8-0.9,2.7
						c-0.6,1.7-1.2,3.4-1.9,5c-0.4,1.2-0.9,2.2-1.3,3.3c0.2-1.4,0.6-4.1,0.6-4.4c0-3.2-0.9-6.3-2.5-9.1c0-0.4,0-0.7-0.1-1.1
						c-0.3-2.6-2.7-4.5-5.3-4.2c-0.2,0-0.4,0.1-0.5,0.1c-3.9,1-6.4,7.9-6.6,11.5c0,0.2,0.1,2.5,0.2,4c-0.2-0.9-0.4-1.7-0.6-2.6
						c-0.4-1.7-0.9-3.5-1.4-5.3c-0.3-0.9-0.5-1.8-0.8-2.7c-0.3-0.9-0.6-1.8-0.9-2.7c-0.8-2.1-1.7-4.2-2.6-6.3c1.5-0.4,6.9-1.7,9-3.4
						c2.2-1.6,4.4-4.3,4.4-7.2c0.1-2.6-2-4.8-4.7-4.9c-0.2,0-0.3,0-0.5,0c-4,0.4-7.5,6.8-8.2,10.4c0,0.2-0.3,2.8-0.4,4.2
						c-0.6-1.3-1.2-2.5-1.8-3.8c-1.8-3.6-3.7-7.2-5.6-10.9l-1.7-3.3c0.5-0.1,7-1.6,9.4-3.5c2.1-1.6,4.4-4.3,4.4-7.2
						c0.1-2.7-2-4.9-4.7-4.9c-0.2,0-0.3,0-0.5,0c-4,0.4-7.5,6.9-8.2,10.4c0,0.3-0.4,4-0.4,5c-1.3-2.4-2.5-4.9-3.6-7.4
						c-1.5-3.3-2.9-6.7-4-10.2c0.2,0,7-1.6,9.4-3.5c2.1-1.6,4.4-4.3,4.4-7.2c0.1-2.6-2-4.8-4.7-4.9c-0.2,0-0.3,0-0.5,0
						c-4,0.4-7.5,6.9-8.2,10.4c0,0.2-0.3,3.1-0.4,4.4H28c-1-3.5-1.7-7.2-2.1-10.8c-0.2-2-0.3-4-0.4-5.9c1.3-0.2,7.1-0.9,9.5-2.4
						c2.4-1.4,4.9-3.8,5.2-6.7c0.4-2.6-1.5-5-4.1-5.4c-0.2,0-0.3,0-0.5,0c-4,0-8.2,6-9.3,9.4c0,0.2-0.5,2.2-0.7,3.6
						c0-0.9,0-1.7,0-2.6c0-3.1,0.2-5.9,0.4-8.4c0.1-1.4,0.2-2.7,0.4-3.9c1.2-0.8,5.9-4.1,7.3-6.5c1.4-2.4,2.6-5.6,1.5-8.3
						c-0.9-2.5-3.6-3.8-6.1-2.9c-0.2,0.1-0.3,0.1-0.5,0.2c-3.8,2-4.8,9.2-4.2,12.7c0,0.3,1.4,5,1.5,5H26c-0.2,1.2-0.3,2.4-0.5,3.7
						c-0.2,2.5-0.5,5.3-0.6,8.4c-0.1,3.3,0,6.6,0.2,9.9c0.3,3.7,0.9,7.4,1.8,11v0.1c-0.6-1-2.5-3.7-2.7-3.9c-2.4-2.7-8.6-6.6-12.3-5
						c-2.4,1.1-3.5,3.9-2.4,6.3c0.1,0.2,0.2,0.3,0.2,0.5c1.4,2.5,4.7,3.8,7.4,4.1c3,0.4,9.4-1.4,9.9-1.6c1,3.6,2.3,7.2,3.8,10.7
						c0.9,2,1.8,4,2.8,6c-0.6-0.8-1.1-1.6-1.2-1.7c-2.4-2.7-8.6-6.6-12.3-5c-2.4,1.1-3.4,4-2.3,6.4c0.1,0.1,0.1,0.3,0.2,0.4
						c1.4,2.5,4.7,3.8,7.4,4.1c2.6,0.4,8.2-1.1,9.6-1.5l1.2,2.3c1.8,3.7,3.7,7.3,5.4,10.9c0.6,1.3,1.2,2.6,1.7,3.8
						c-0.5-0.8-1-1.4-1-1.5c-2.4-2.7-8.6-6.6-12.3-5c-2.4,1.1-3.5,3.9-2.4,6.3c0.1,0.2,0.2,0.3,0.2,0.5c1.4,2.5,4.7,3.7,7.4,4.1
						c2.6,0.4,7.6-0.9,9.3-1.4c0.5,1.3,1,2.7,1.5,4c0.3,0.9,0.6,1.8,0.9,2.7c0.2,0.9,0.5,1.8,0.8,2.7c0.4,1.7,0.8,3.5,1.2,5.2
						c0.3,1.2,0.5,2.4,0.7,3.4c-0.6-1.3-1.8-3.8-1.9-4c-1.9-3.1-7.5-7.9-11.4-6.8c-2.5,0.7-4,3.4-3.3,5.9c0,0.2,0.1,0.3,0.2,0.5
						c1,2.7,4.1,4.4,6.6,5.2c2.8,0.9,9.1,0.1,9.9,0c0.4,1.9,0.7,3.7,1,5.4c1.1,6,1.7,11.1,2.1,14.6c0.1,0.6,0.1,1.2,0.2,1.7H40.9
						l3.8,73.5h22.2l3.8-73.5H59.2l0.3-0.5c1.6-3.3,3.7-7.9,6.1-13.6c0.7-1.8,1.5-3.7,2.3-5.7c0.8,0.2,7.1,1.4,9.9,0.8
						c2.6-0.6,5.9-2.1,7.1-4.7c1.2-2.4,0.2-5.3-2.2-6.4c-0.1-0.1-0.3-0.1-0.5-0.2c-3.8-1.3-9.7,3.1-11.9,6c-0.1,0.2-1.3,2.2-2,3.5
						c0.3-0.8,0.6-1.6,0.9-2.5c0.6-1.7,1.2-3.4,1.8-5.2c0.3-0.9,0.5-1.8,0.8-2.7c0.3-0.9,0.5-1.9,0.7-2.8c0.5-2.2,0.9-4.4,1.3-6.7
						c1.5,0.5,6.7,2.4,9.4,2.2c2.7-0.2,6.1-1.2,7.6-3.5c1.5-2.2,1-5.2-1.2-6.7c-0.1-0.1-0.3-0.2-0.5-0.3c-3.6-1.9-10.1,1.6-12.6,4.1
						c-0.2,0.2-1.8,2.2-2.7,3.3c0.2-1.4,0.4-2.7,0.6-4.1c0.5-4,0.9-8.1,1.3-12.2l0.4-3.7c0.5,0.2,6.7,2.5,9.7,2.3
						c2.7-0.2,6.1-1.2,7.6-3.5c1.5-2.2,1-5.2-1.2-6.7c-0.1-0.1-0.3-0.2-0.5-0.3c-3.6-1.9-10.1,1.6-12.6,4.1
						c-0.2,0.2-2.5,3.1-3.1,3.9c0.3-2.7,0.6-5.5,1-8.1c0.6-3.6,1.3-7.2,2.4-10.7c0.2,0.1,6.7,2.5,9.8,2.4c2.7-0.2,6.1-1.2,7.6-3.5
						c1.5-2.2,1-5.2-1.2-6.7c-0.1-0.1-0.3-0.2-0.5-0.3c-3.6-1.9-10.1,1.6-12.6,4.1c-0.2,0.2-2,2.4-2.8,3.5l-0.2-0.1
						c1.1-3.5,2.5-6.9,4.2-10.2c0.9-1.8,1.9-3.5,2.9-5.1c1.2,0.6,6.4,3.1,9.3,3.2s6.2-0.5,8-2.7c1.7-2,1.5-5.1-0.5-6.8
						c-0.1-0.1-0.2-0.2-0.3-0.3c-3.4-2.2-10.2,0.5-12.9,2.7c-0.2,0.1-1.6,1.5-2.6,2.6c0.5-0.7,0.9-1.5,1.4-2.2
						c1.7-2.6,3.4-4.8,4.9-6.8c0.9-1.1,1.7-2.1,2.5-3c1.4,0,7.2-0.2,9.7-1.4s5.2-3.3,5.9-6.1c0.8-2.5-0.6-5.2-3.2-6
						C108.6,231.2,108.3,231.2,107.9,231.1z M63.3,339.4c-2.4,5.6-4.7,10.2-6.3,13.4c-0.3,0.6-0.6,1.2-0.9,1.7h-0.3
						c-0.1-0.6-0.2-1.3-0.3-2.1c-0.5-3.5-1.3-8.7-2.5-14.7c-0.4-1.9-0.8-4-1.3-6c1.9-0.8,3.7-1.6,5.5-2.6c2.1,2.2,7.4,4.9,8.1,5.2
						C64.7,336.1,64.1,337.8,63.3,339.4z" class="coloref9c80 svgShape"></path><path fill="#90a0a4" d="M14.7,255.3c2.9,1.3,10,1.1,10,1.1s-1.5-4.7-1.7-4.9c-1.6-3.3-6.5-8.7-10.5-8.1c-2.6,0.4-4.4,2.9-4,5.5
						c0,0.2,0.1,0.3,0.1,0.5C9.4,252.2,12.3,254.2,14.7,255.3z" class="coloref9c80 svgShape"></path><path fill="#ffffff" d="M14.7 255.3c2.9 1.3 10 1.1 10 1.1s-1.5-4.7-1.7-4.9c-1.6-3.3-6.5-8.7-10.5-8.1-2.6.4-4.4 2.9-4 5.5 0 .2.1.3.1.5C9.4 252.2 12.3 254.2 14.7 255.3zM86.7 256.9c.1 0 1.3-4.7 1.3-5 .5-3.5-.6-10.8-4.3-12.6-2.4-1.1-5.3 0-6.3 2.4-.1.2-.1.3-.2.5-1 2.7.3 6 1.7 8.2C80.7 253.1 86.7 256.9 86.7 256.9z" enable-background="new" opacity=".3" class="colorfff svgShape"></path><path fill="#ffffff" d="M27.1,274.4c1,3.6,2.3,7.2,3.8,10.7c0.9,2,1.8,4,2.8,6c-0.6-0.8-1.1-1.6-1.2-1.7c-2.4-2.7-8.6-6.6-12.3-5
						c-2.4,1.1-3.5,4-2.4,6.4c0.1,0.2,0.2,0.3,0.2,0.5c1.4,2.5,4.7,3.8,7.4,4.1c2.6,0.4,8.2-1.1,9.6-1.5l1.2,2.3
						c1.8,3.7,3.7,7.3,5.4,10.9c0.6,1.3,1.2,2.6,1.7,3.8c-0.5-0.8-1-1.4-1-1.5c-2.4-2.7-8.6-6.6-12.3-5c-2.4,1.1-3.5,3.9-2.4,6.3
						c0.1,0.2,0.2,0.3,0.2,0.5c1.4,2.5,4.7,3.7,7.4,4.1c2.6,0.4,7.6-0.9,9.3-1.4c0.5,1.3,1,2.7,1.5,4c0.3,0.9,0.6,1.8,0.9,2.7
						c0.2,0.9,0.5,1.8,0.8,2.7c0.4,1.7,0.8,3.5,1.2,5.2c0.3,1.2,0.5,2.4,0.7,3.4c-0.6-1.3-1.8-3.8-1.9-4c-1.9-3.1-7.5-7.9-11.4-6.8
						c-2.5,0.7-4,3.4-3.3,5.9c0,0.2,0.1,0.3,0.2,0.5c1,2.7,4.1,4.4,6.6,5.2c2.8,0.9,9.1,0.1,9.9,0c0.4,1.9,0.7,3.7,1,5.4
						c1.1,6,1.7,11.1,2.1,14.6c0.1,0.6,0.1,1.2,0.2,1.7H40.9l3.8,73.5h22.2l3.8-73.5H59.2l0.3-0.5c1.6-3.3,3.7-7.9,6.1-13.6
						c0.7-1.8,1.5-3.7,2.3-5.7c0.8,0.2,7.1,1.4,9.9,0.8c2.6-0.6,5.9-2.1,7.1-4.7c1.2-2.4,0.2-5.3-2.2-6.4c-0.1-0.1-0.3-0.1-0.5-0.2
						c-3.8-1.3-9.7,3.1-11.9,6c-0.1,0.2-1.3,2.2-2,3.5c0.3-0.8,0.6-1.6,0.9-2.5c0.6-1.7,1.2-3.4,1.8-5.2c0.3-0.9,0.5-1.8,0.8-2.7
						c0.3-0.9,0.5-1.9,0.7-2.8c0.5-2.2,0.9-4.4,1.3-6.7c1.5,0.5,6.7,2.4,9.4,2.2c2.7-0.2,6.1-1.2,7.6-3.5c1.5-2.2,1-5.2-1.2-6.7
						c-0.1-0.1-0.3-0.2-0.5-0.3c-3.6-1.9-10.1,1.6-12.6,4.1c-0.2,0.2-1.8,2.2-2.7,3.3c0.2-1.4,0.4-2.7,0.6-4.1
						c0.5-4,0.9-8.1,1.3-12.2l0.4-3.7c0.5,0.2,6.7,2.5,9.7,2.3c2.7-0.2,6.1-1.2,7.6-3.5c1.5-2.2,1-5.2-1.2-6.7
						c-0.1-0.1-0.3-0.2-0.5-0.3c-3.6-1.9-10.1,1.6-12.6,4.1c-0.2,0.2-2.5,3.1-3.1,3.9c0.3-2.7,0.6-5.5,1-8.1
						c0.6-3.6,1.3-7.2,2.4-10.7c0.2,0.1,6.7,2.5,9.8,2.4c2.7-0.2,6.1-1.2,7.6-3.5c1.5-2.2,1-5.2-1.2-6.7c-0.1-0.1-0.3-0.2-0.5-0.3
						c-3.6-1.9-10.1,1.6-12.6,4.1c-0.2,0.2-2,2.4-2.8,3.5l-0.2-0.1c1.1-3.5,2.5-6.9,4.2-10.2c0.9-1.8,1.9-3.5,2.9-5.1
						c1.2,0.6,6.4,3.1,9.3,3.2s6.2-0.5,8-2.7c1.7-2,1.5-5.1-0.5-6.8c-0.1-0.1-0.2-0.2-0.3-0.3c-3.4-2.2-10.2,0.5-12.9,2.7
						c-0.2,0.1-1.6,1.5-2.6,2.6c0.5-0.7,0.9-1.5,1.4-2.2c1.7-2.6,3.4-4.8,4.9-6.8c0.9-1.1,1.7-2.1,2.5-3c1.4,0,7.2-0.2,9.7-1.4
						s5.2-3.3,5.9-6.1c0.6-2.6-1-5.2-3.5-5.8c-0.2,0-0.3-0.1-0.5-0.1c-4-0.4-8.8,5.1-10.3,8.4c-0.1,0.3-1.6,5-1.5,5h0.1
						c-0.8,0.9-1.6,1.8-2.4,2.8c-1.6,1.9-3.3,4.1-5.1,6.7c-1.9,2.7-3.7,5.5-5.3,8.4c-1.8,3.2-3.3,6.6-4.5,10.2v0.1
						c0-1.2,0-4.5-0.1-4.8c-0.5-3.6-3.5-10.3-7.5-11c-2.6-0.4-5.1,1.4-5.5,4c0,0.2,0,0.4-0.1,0.5c-0.2,2.8,1.8,5.7,3.8,7.5
						c2.3,2,8.6,4,9.1,4.2c-1.2,3.5-2.2,7-2.9,10.6c-0.4,2.2-0.7,4.4-1,6.6c0-1,0-1.9,0-2.1c-0.5-3.6-3.5-10.3-7.5-11
						c-2.6-0.4-5.1,1.4-5.5,4c0,0.2,0,0.3-0.1,0.5c-0.2,2.9,1.8,5.7,3.8,7.5c2,1.8,7.4,3.6,8.8,4.1l-0.3,2.5
						c-0.5,4.1-1,8.1-1.5,12.1c-0.2,1.4-0.5,2.8-0.7,4.1c0-0.9,0-1.7,0-1.8c-0.5-3.6-3.5-10.3-7.5-11c-2.6-0.4-5.1,1.4-5.5,4
						c0,0.2,0,0.4-0.1,0.5c-0.2,2.8,1.8,5.7,3.8,7.5c2,1.8,6.9,3.4,8.6,4c-0.3,1.4-0.6,2.8-0.9,4.1c-0.3,0.9-0.4,1.8-0.8,2.7
						c-0.3,0.9-0.6,1.8-0.9,2.7c-0.6,1.7-1.2,3.4-1.9,5c-0.4,1.2-0.9,2.2-1.3,3.3c0.2-1.4,0.6-4.1,0.6-4.4c0-3.2-0.9-6.3-2.5-9.1
						c0-0.4,0-0.7-0.1-1.1c-0.3-2.6-2.7-4.5-5.3-4.2c-0.2,0-0.4,0.1-0.5,0.1c-3.9,1-6.4,7.9-6.6,11.5c0,0.2,0.1,2.5,0.2,4
						c-0.2-0.9-0.4-1.7-0.6-2.6c-0.4-1.7-0.9-3.5-1.4-5.3c-0.3-0.9-0.5-1.8-0.8-2.7c-0.3-0.9-0.6-1.8-0.9-2.7
						c-0.8-2.1-1.7-4.2-2.6-6.3c1.5-0.4,6.9-1.7,9-3.4c2.2-1.6,4.4-4.3,4.4-7.2c0.1-2.6-2-4.8-4.7-4.9c-0.2,0-0.3,0-0.5,0
						c-4,0.4-7.5,6.8-8.2,10.4c0,0.2-0.3,2.8-0.4,4.2c-0.6-1.3-1.2-2.5-1.8-3.8c-1.8-3.6-3.7-7.2-5.6-10.9l-1.7-3.3
						c0.5-0.1,7-1.6,9.4-3.5c2.1-1.6,4.4-4.3,4.4-7.2c0.1-2.7-2-4.9-4.7-4.9c-0.2,0-0.3,0-0.5,0c-4,0.4-7.5,6.9-8.2,10.4
						c0,0.3-0.4,4-0.4,5c-1.3-2.4-2.5-4.9-3.6-7.4c-1.5-3.3-2.9-6.7-4-10.2c0.2,0,7-1.6,9.4-3.5c2.1-1.6,4.4-4.3,4.4-7.2
						c0.1-2.6-2-4.8-4.7-4.9c-0.2,0-0.3,0-0.5,0c-4,0.4-7.5,6.9-8.2,10.4c0,0.2-0.3,3.1-0.4,4.4H28c-1-3.5-1.7-7.2-2.1-10.8
						c-0.2-2-0.3-4-0.4-5.9c1.3-0.2,7.1-0.9,9.5-2.4c2.4-1.4,4.9-3.8,5.2-6.7c0.4-2.6-1.5-5-4.1-5.4c-0.2,0-0.3,0-0.5,0
						c-4,0-8.2,6-9.3,9.4c0,0.2-0.5,2.2-0.7,3.6c0-0.9,0-1.7,0-2.6c0-3.1,0.2-5.9,0.4-8.4c0.1-1.4,0.2-2.7,0.4-3.9
						c1.2-0.8,5.9-4.1,7.3-6.5c1.4-2.4,2.6-5.6,1.5-8.3c-0.9-2.5-3.6-3.8-6.1-2.9c-0.2,0.1-0.3,0.1-0.5,0.2c-3.8,2-4.8,9.2-4.2,12.7
						c0,0.3,1.4,5,1.5,5H26c-0.2,1.2-0.3,2.4-0.5,3.7c-0.2,2.5-0.5,5.3-0.6,8.4c-0.1,3.3,0,6.6,0.2,9.9c0.3,3.7,0.9,7.4,1.8,11v0.1
						c-0.6-1-2.5-3.7-2.7-3.9c-2.4-2.7-8.6-6.6-12.3-5c-2.4,1.1-3.5,3.9-2.4,6.3c0.1,0.2,0.2,0.3,0.2,0.5c1.4,2.5,4.7,3.8,7.4,4.1
						C20.2,276.4,26.6,274.5,27.1,274.4z M57.4,329.1c2.1,2.2,7.4,4.9,8.1,5.2c-0.7,1.8-1.4,3.5-2.1,5.1c-2.4,5.6-4.7,10.2-6.3,13.4
						c-0.3,0.6-0.6,1.2-0.9,1.7h-0.3c-0.1-0.6-0.2-1.3-0.3-2.1c-0.5-3.5-1.3-8.7-2.5-14.7c-0.4-1.9-0.8-4-1.3-6
						C53.7,330.9,55.6,330,57.4,329.1z" enable-background="new" opacity=".3" class="colorfff svgShape"></path></g><g fill="#000000" class="color000 svgShape"><path fill="none" stroke="#6f655d" stroke-linecap="round" stroke-linejoin="round" d="M89,157.2h364c6.8,0,12.3,5.5,12.3,12.3v239.9l0,0H76.7l0,0V169.5C76.7,162.7,82.2,157.2,89,157.2L89,157.2z" class="colorStroke6f655d svgStroke"></path><rect width="357" height="201.8" x="92.5" y="176.9" fill="none" stroke="#6f655d" stroke-linecap="round" stroke-linejoin="round" class="colorStroke6f655d svgStroke"></rect><rect width="267" height="13.2" x="138.4" y="397.3" fill="#6f655d" stroke="#6f655d" stroke-linecap="round" stroke-linejoin="round" class="color6f655d svgShape colorStroke6f655d svgStroke"></rect><rect width="267" height="6.8" x="138.4" y="403.6" fill="#ffffff" stroke="#6f655d" stroke-linecap="round" stroke-linejoin="round" class="colorfff svgShape colorStroke6f655d svgStroke"></rect><path fill="#6f655d" stroke="#6f655d" stroke-linecap="round" stroke-linejoin="round" d="M45.3,418.3c0,0,4.4,5.4,17.5,9.7h418.1c0,0,9.7-2.4,14.1-9.3L45.3,418.3z" class="color6f655d svgShape colorStroke6f655d svgStroke"></path><path fill="#ffffff" stroke="#6f655d" stroke-linecap="round" stroke-linejoin="round" d="M46.7 408.6h447.1c1.2 0 2.2 1 2.2 2.2v5.8c0 1.2-1 2.2-2.2 2.2H46.7c-1.2 0-2.2-1-2.2-2.2v-5.8C44.4 409.6 45.4 408.6 46.7 408.6zM274.3 164.9c0-1.9-1.5-3.4-3.4-3.4s-3.4 1.5-3.4 3.4 1.5 3.4 3.4 3.4l0 0C272.8 168.3 274.3 166.8 274.3 164.9L274.3 164.9z" class="colorfff svgShape colorStroke6f655d svgStroke"></path><path fill="#6f655d" stroke="#ffffff" stroke-miterlimit="10" stroke-width=".692" d="M80.4,228.2L80.4,228.2c-0.5,0-1-0.4-1-1V199c0-0.5,0.4-1,1-1l0,0c0.5,0,1,0.4,1,1v28.2
			C81.4,227.8,80.9,228.2,80.4,228.2z" class="color6f655d svgShape colorStrokefff svgStroke"></path><line x1="352.6" x2="352.6" y1="176.9" y2="378.6" fill="none" stroke="#6f655d" stroke-linecap="round" stroke-linejoin="round" class="colorStroke6f655d svgStroke"></line><line x1="357.6" x2="357.6" y1="176.9" y2="378.6" fill="none" stroke="#6f655d" stroke-linecap="round" stroke-linejoin="round" class="colorStroke6f655d svgStroke"></line><line x1="92.7" x2="352.6" y1="365.3" y2="365.3" fill="none" stroke="#6f655d" stroke-linecap="round" stroke-linejoin="round" class="colorStroke6f655d svgStroke"></line><line x1="104.1" x2="192" y1="340.2" y2="340.2" fill="none" stroke="#6f655d" stroke-linecap="round" stroke-linejoin="round" class="colorStroke6f655d svgStroke"></line><line x1="104.1" x2="192" y1="331.8" y2="331.8" fill="none" stroke="#6f655d" stroke-linecap="round" stroke-linejoin="round" class="colorStroke6f655d svgStroke"></line><line x1="104.1" x2="192" y1="323.4" y2="323.4" fill="none" stroke="#6f655d" stroke-linecap="round" stroke-linejoin="round" class="colorStroke6f655d svgStroke"></line><line x1="104.1" x2="192" y1="315.1" y2="315.1" fill="none" stroke="#6f655d" stroke-linecap="round" stroke-linejoin="round" class="colorStroke6f655d svgStroke"></line><line x1="104.1" x2="192" y1="306.7" y2="306.7" fill="none" stroke="#6f655d" stroke-linecap="round" stroke-linejoin="round" class="colorStroke6f655d svgStroke"></line><line x1="104.1" x2="192" y1="282.3" y2="282.3" fill="none" stroke="#6f655d" stroke-linecap="round" stroke-linejoin="round" class="colorStroke6f655d svgStroke"></line><line x1="104.1" x2="192" y1="273.9" y2="273.9" fill="none" stroke="#6f655d" stroke-linecap="round" stroke-linejoin="round" class="colorStroke6f655d svgStroke"></line><line x1="104.1" x2="192" y1="265.5" y2="265.5" fill="none" stroke="#6f655d" stroke-linecap="round" stroke-linejoin="round" class="colorStroke6f655d svgStroke"></line><line x1="104.1" x2="192" y1="257.2" y2="257.2" fill="none" stroke="#6f655d" stroke-linecap="round" stroke-linejoin="round" class="colorStroke6f655d svgStroke"></line><line x1="104.1" x2="192" y1="248.8" y2="248.8" fill="none" stroke="#6f655d" stroke-linecap="round" stroke-linejoin="round" class="colorStroke6f655d svgStroke"></line><path fill="#90a0a4" stroke="#6f655d" stroke-linecap="round" stroke-linejoin="round" d="M405.8,196c-0.7,0-1.2,0.5-1.2,1.2l-0.1,1.5h-19l-1.1,26.6h36.5l0.8-20.2l0.3-6.4l0.1-2.7L405.8,196z" class="coloref9c80 svgShape colorStroke6f655d svgStroke"></path><polygon fill="#ffffff" stroke="#6f655d" stroke-linecap="round" stroke-linejoin="round" points="420.9 225.3 420.7 200.6 385.7 200.6 386 225" class="colorfff svgShape colorStroke6f655d svgStroke"></polygon><polygon fill="#ffffff" stroke="#6f655d" stroke-linecap="round" stroke-linejoin="round" points="420.9 225.3 419.3 200.6 384.2 200.6 384.5 225" class="colorfff svgShape colorStroke6f655d svgStroke"></polygon><polygon fill="#90a0a4" stroke="#6f655d" stroke-linecap="round" stroke-linejoin="round" points="384.4 225.3 379.5 199.8 416.3 199.8 420.9 225.3" class="coloref9c80 svgShape colorStroke6f655d svgStroke"></polygon><path fill="#90a0a4" stroke="#6f655d" stroke-linecap="round" stroke-linejoin="round" d="M405.8,241.1c-0.6,0-1.1,0.5-1.2,1.1l-0.1,1.5h-19l-1.1,26.6h36.5l0.8-20.2l0.3-6.4l0.1-2.7L405.8,241.1
			L405.8,241.1z" class="coloref9c80 svgShape colorStroke6f655d svgStroke"></path><polygon fill="#ffffff" stroke="#6f655d" stroke-linecap="round" stroke-linejoin="round" points="420.9 270.4 420.7 245.6 385.7 245.6 386 270" class="colorfff svgShape colorStroke6f655d svgStroke"></polygon><polygon fill="#ffffff" stroke="#6f655d" stroke-linecap="round" stroke-linejoin="round" points="420.9 270.4 419.3 245.6 384.2 245.6 384.5 270" class="colorfff svgShape colorStroke6f655d svgStroke"></polygon><polygon fill="#90a0a4" stroke="#6f655d" stroke-linecap="round" stroke-linejoin="round" points="384.4 270.4 379.5 244.8 416.3 244.8 420.9 270.4" class="coloref9c80 svgShape colorStroke6f655d svgStroke"></polygon><path fill="#90a0a4" stroke="#6f655d" stroke-linecap="round" stroke-linejoin="round" d="M405.8,286.1c-0.7,0-1.2,0.5-1.2,1.2l-0.1,1.5h-19l-1.1,26.6h36.5l0.8-20.2l0.3-6.4l0.1-2.7H405.8z" class="coloref9c80 svgShape colorStroke6f655d svgStroke"></path><polygon fill="#ffffff" stroke="#6f655d" stroke-linecap="round" stroke-linejoin="round" points="420.9 315.3 420.7 290.6 385.7 290.6 386 315.1" class="colorfff svgShape colorStroke6f655d svgStroke"></polygon><polygon fill="#ffffff" stroke="#6f655d" stroke-linecap="round" stroke-linejoin="round" points="420.9 315.3 419.3 290.6 384.2 290.6 384.5 315.1" class="colorfff svgShape colorStroke6f655d svgStroke"></polygon><polygon fill="#90a0a4" stroke="#6f655d" stroke-linecap="round" stroke-linejoin="round" points="384.4 315.3 379.5 289.8 416.3 289.8 420.9 315.3" class="coloref9c80 svgShape colorStroke6f655d svgStroke"></polygon><path fill="#90a0a4" stroke="#6f655d" stroke-linecap="round" stroke-linejoin="round" d="M405.8,331.1c-0.6,0-1.1,0.5-1.2,1.1l-0.1,1.5h-19l-1.1,26.6h36.5l0.8-20.2l0.3-6.4l0.1-2.7h-16.3V331.1z" class="coloref9c80 svgShape colorStroke6f655d svgStroke"></path><polygon fill="#ffffff" stroke="#6f655d" stroke-linecap="round" stroke-linejoin="round" points="420.9 360.4 420.7 335.6 385.7 335.6 386 360" class="colorfff svgShape colorStroke6f655d svgStroke"></polygon><polygon fill="#ffffff" stroke="#6f655d" stroke-linecap="round" stroke-linejoin="round" points="420.9 360.4 419.3 335.6 384.2 335.6 384.5 360" class="colorfff svgShape colorStroke6f655d svgStroke"></polygon><polygon fill="#90a0a4" stroke="#6f655d" stroke-linecap="round" stroke-linejoin="round" points="384.4 360.4 379.5 334.8 416.3 334.8 420.9 360.4" class="coloref9c80 svgShape colorStroke6f655d svgStroke"></polygon></g><g fill="#000000" class="color000 svgShape"><defs><rect id="c" width="123.2" height="235.3" x="217.3" y="172.9" fill="#000000" class="color000 svgShape"></rect></defs><clipPath id="d"><use overflow="visible" xlink:href="#c"></use></clipPath><g clip-path="url(#d)" fill="#000000" class="color000 svgShape"><path fill="#6f655d" stroke="#6f655d" stroke-linecap="round" stroke-linejoin="round" d="M305.6,403.4c1.6,2.3,2.5,5,2.5,7.9c-0.2,4,9.8,8.5,12.5,6.8s3.2-6.2,1.2-9.1c-1.9-2.5-3.9-4.8-6.1-7.1
						c-0.6-0.7-0.6-1.3-2.5-1.3S306.3,400.5,305.6,403.4z" class="color6f655d svgShape colorStroke6f655d svgStroke"></path><path fill="#ffffff" stroke="#6f655d" stroke-linecap="round" stroke-linejoin="round" d="M322.3,409.9c0,1-0.1,2-0.3,3c-0.6,2.1-1.2,2.3-1.2,2.3l-1.1-1.7l-2.3,0.6l-0.1,2.1
						c-1.3,0.1-2.6-0.1-3.8-0.5c-1.3-0.6-3.9-2-4.4-4.9c-0.5-2.1-1.4-4.1-2.6-5.9c1,1.9,1.6,4.1,1.5,6.2c-0.2,4,9.8,8.5,12.5,6.8
						C323.1,416.5,323.7,412.7,322.3,409.9z" class="colorfff svgShape colorStroke6f655d svgStroke"></path><path fill="#6f655d" stroke="#6f655d" stroke-linecap="round" stroke-linejoin="round" d="M280.5,400.4c-2.2,1.9-4.6,3.6-7.1,5c-3.8,2-8.2,1.2-8.8,3.1s2.5,3.7,9.4,4.6c6.9,1,8.1-0.7,11.1-1.8
						c3-1.1,8.2-0.2,9.4-1.1c1.2-0.8,0.1-4-0.4-7.1s-0.7-3.8-0.7-3.8c-2.1,1-4.4,1.4-6.7,1.1C284.6,400.2,282.5,400.2,280.5,400.4z" class="color6f655d svgShape colorStroke6f655d svgStroke"></path><path fill="#ffffff" stroke="#6f655d" stroke-linecap="round" stroke-linejoin="round" d="M285,411.4c3-1.1,8.2-0.2,9.4-1.1c0.8-0.6,0.6-2.2,0.2-4.1c-1.2,0.8-2.5,1.4-3.9,1.9
						c-3.2,0.7-6.3,1.7-9.4,2.7c-3.5,1.2-7.4,1-10.7-0.6c-3-1.2-1.8-1.1-1.4-2.3c0.1-0.4,0.1-0.8-0.2-1.2c-2.3,0.4-4.1,0.5-4.5,1.7
						c-0.6,1.9,2.5,3.7,9.4,4.6C280.9,414.1,282,412.4,285,411.4z" class="colorfff svgShape colorStroke6f655d svgStroke"></path><path fill="#90a0a4" stroke="#6f655d" stroke-linecap="round" stroke-linejoin="round" d="M273.7,281.2c0,0-0.8,8-0.8,25.5c0,13.3,0.7,26.6,2.3,39.8c1,7.3,1.2,7.4,1.3,8.3c0.1,1,4.5,28,4.5,29.6
						v2.3c0,0-2.4,2.4-1.6,4.5c0.8,2.2,2.3,6.5,1.9,6.7c-0.4,0.1-1.7,0.7-1.7,1.8v1.1c1.6,1.7,3.7,2.9,5.9,3.2
						c4.2,0.8,5.5,1.4,6.6-0.1c1.4-1.8,2.4-3.9,3-6.1c0.5-2.3,1.1-3.3-0.4-5.6c-1.4-2.3-1.9-3.2-1.9-4.4s1.7-20.9,0.6-27.7
						c-1.1-6.8-2-11.2-2-14.7s1.1-34.3,1.1-34.3s6.1,38,6.8,46.2s3,29.1,2.7,30.4c-0.2,1.3-2,3.3-1.2,5.5c0.9,1.9,1.9,3.6,3.2,5.2
						c-0.5,0.4-0.7,1.2-0.4,1.8c0.5,1.2,1.4,3.2,1.9,3.3c0.5,0.1,10.1-1.4,10.1-1.4s3.4-6,2.4-9.1c-1.1-3.1-2.1-4.5-2.1-4.9
						c0.6-3.2,1-6.4,1.2-9.7c0.1-4.3-3.8-46.5-3.8-46.5s-1.7-38.2-1.7-38.6s-0.4-6.4-0.4-6.4s-12.6,8.3-23.5,4.8
						S273.7,281.2,273.7,281.2z" class="coloref9c80 svgShape colorStroke6f655d svgStroke"></path><line x1="292.5" x2="291.1" y1="311" y2="306.5" fill="none" stroke="#6f655d" stroke-linecap="round" stroke-linejoin="round" class="colorStroke6f655d svgStroke"></line><line x1="292.8" x2="287.7" y1="307.7" y2="304.6" fill="none" stroke="#6f655d" stroke-linecap="round" stroke-linejoin="round" class="colorStroke6f655d svgStroke"></line><path fill="#d9d9d9" stroke="#6f655d" stroke-linecap="round" stroke-linejoin="round" d="M291.7,216.2c0,0-8.7-1.3-10.1-0.3s-6.3,8.6-8.7,11.8c-2.4,3.2-18.5,16.8-18.5,16.8l-14.1-27.1
						c0.5-2,0.8-4.1,0.9-6.2c0-2-1-3.3-1-5.2s0.9-4.8,0.5-5.5c-0.5-0.7-1.7,0.1-2.5,1.5s-0.7,5.1-0.7,5.1s-7.2-8.8-7.8-9.9
						c-0.2-0.3-1.4-0.2-1.4,0.7s4.4,9.3,4.4,9.3s-0.5,0.7-0.9,0.7s-6.7-7.5-7.1-7.7s-1.4,0.1-0.8,1.4s5.4,7.7,5.4,7.7
						c-0.9,0-1.8,0.1-2.7,0.3c-0.5,0.3-0.6,0.9-0.3,1.4c0.1,0.1,0.1,0.2,0.2,0.2c0.4,0.4,0.9,0.7,1.4,0.9c0,0,0.1,0.7,0.2,1.8
						c-0.1,1.4,0.5,2.8,1.6,3.6c1.2,1.1,2.5,1.9,4,2.5c0.6,0.1,12.8,36,14.7,39.2s2.9,3.3,5,2.7c2.2-0.6,23.5-16.6,23.5-16.6
						s-0.9,29.4-1.9,31.4c-1,2.1-2.2,2.1-2.2,3.4c0.1,1.2,0.2,2.4,0.5,3.5c0,0,5.7,9.6,17.4,9.9c11.7,0.3,22.3-4.3,22.3-6.5
						c-0.1-1.4-0.4-2.7-0.8-4c0-0.4,1.4-2.6,1.2-4s-1-1.7-0.8-3.8c0.2-2,10.1-31.4,10.5-40.4c0.5-9,0.6-9.7-1.6-11.3s-10.2-3-10.2-3
						l-13.5-3.4l-5.4-0.5L291.7,216.2z" class="colord9d9d9 svgShape colorStroke6f655d svgStroke"></path><path fill="#6f655d" stroke="#6f655d" stroke-linecap="round" stroke-linejoin="round" d="M323.1,234.9c0.5-9,0.6-9.7-1.6-11.3s-10.2-3-10.2-3l-13.5-3.4l-5.4-0.5l-0.8-0.6c0,0-8.7-1.3-10.1-0.3
						s-6.3,8.6-8.7,11.8c-2.4,3.2-18.5,16.8-18.5,16.8l-4.7-9.6l-8.6,5.7c3.5,9.3,6.6,17.3,7.4,18.6c1.9,3.2,2.9,3.3,5,2.7
						c2.2-0.6,23.5-16.6,23.5-16.6s-0.9,29.4-1.9,31.4c-1,2.1-2.2,2.1-2.2,3.4c0.1,1.2,0.2,2.4,0.5,3.5c0,0,5.7,9.6,17.4,9.9
						c11.7,0.3,22.3-4.3,22.3-6.5c-0.1-1.4-0.4-2.7-0.8-4c0-0.4,1.4-2.6,1.2-4s-1-1.7-0.8-3.8C312.9,273.3,322.7,243.9,323.1,234.9z
						" class="color6f655d svgShape colorStroke6f655d svgStroke"></path><polyline fill="none" stroke="#fff" stroke-linecap="round" stroke-linejoin="round" stroke-width=".75" points="277.1 231.8 277.1 245.3 274.2 231.9"></polyline><path fill="none" stroke="#ffffff" stroke-linecap="round" stroke-linejoin="round" stroke-width=".75" d="M274.7 284.4c11.5 3.1 23.7 2.8 35-1.1M300.8 289.7c1.2-.1 2.3-.3 3.5-.5M277.9 286c0 0 6.3 4.2 17.7 4.1" class="colorStrokefff svgStroke"></path><path fill="none" stroke="#6f655d" stroke-linecap="round" stroke-linejoin="round" d="M237.6,207c-0.1,0.8-0.3,1.6-0.7,2.3c-0.7,1.2-1.6,1.6-1.7,3.6c-0.1,1.2,0.4,2.3,1.3,3.1" class="colorStroke6f655d svgStroke"></path><path fill="#d9d9d9" stroke="#6f655d" stroke-linecap="round" stroke-linejoin="round" d="M230.2 210.3c0 0-4.6-3.2-5.5-2.6-1 .7-1.2 2-.5 3 .1.1.1.2.2.2 1 .9 5.5 1.6 6.3 1.2S231 210.8 230.2 210.3zM231.7 213.8c0 0-3.2-.7-4-.8s-1.2.3-1.2 1.1c.1.8.8 1.3 2.1 1.4s4 .5 4.1-.7c.1-.4-.2-.9-.6-1C232 213.8 231.8 213.8 231.7 213.8z" class="colord9d9d9 svgShape colorStroke6f655d svgStroke"></path><path fill="none" stroke="#6f655d" stroke-linecap="round" stroke-linejoin="round" d="M297.9,209.5c0,0,6.4-0.2,8.5-1.2" class="colorStroke6f655d svgStroke"></path><path fill="#cccccc" stroke="#6f655d" stroke-linecap="round" stroke-linejoin="round" d="M312.6,230c0,0-12.9,13.2-17.1,18.2c-2.9,3.4-6.1,6.5-9.5,9.4l-28.8-19.1c-1.1-1.6-2.1-3.3-3-5
						c-0.8-1.8-2.1-2.3-3.2-5c-1.1-2.7-2.2-4.5-3-2.6s-0.5,2.5,0,3.4c0.5,1,2.1,3.8,2.1,3.8s-7.1-2.9-9.7-3.9
						c-2.5-1.1-5.1-1.4-5.2-0.5c-0.1,1,0.4,0.8,1.6,1.3s8.6,4.5,8.6,4.5l-0.7,0.4c0,0-9.8-1.8-10.7-1.9c-1-0.1-0.7,1.2,0,1.5
						c0.7,0.4,4.4,2.1,4.4,2.1s-0.8,0.7,0.1,2c0.9,1.1,1.9,2,3.1,2.9c0.2,0.9,0.7,1.7,1.3,2.3c1,0.7,7.1,0.6,9.8,0.8
						c1.3,0.1,2.6,0.3,3.8,0.8c0,0,30.3,25.9,32.4,25.9s30.2-26.7,33.3-30.6c3.1-3.9,5.4-10.8,3.5-14s-4.9-3.9-6.8-3.2" class="colorccc svgShape colorStroke6f655d svgStroke"></path><path fill="#ffffff" stroke="#6f655d" stroke-linecap="round" stroke-linejoin="round" d="M238.4,236.6c0,0,3.8,1.3,5,1.7" class="colorfff svgShape colorStroke6f655d svgStroke"></path><line x1="241.6" x2="244.1" y1="241.5" y2="241.9" fill="none" stroke="#6f655d" stroke-linecap="round" stroke-linejoin="round" class="colorStroke6f655d svgStroke"></line><path fill="#6f655d" stroke="#ffffff" stroke-linecap="round" stroke-linejoin="round" stroke-width=".75" d="M312.6,230c0,0-12.9,13.2-17.1,18.2c-2.9,3.4-6.1,6.5-9.5,9.4l-7.7-5l-4.4,8.2
						c7.6,5.8,14.1,10.6,14.9,10.6c2,0,30.2-26.7,33.3-30.6c3.1-3.9,5.4-10.8,3.5-14s-4.9-3.9-6.8-3.2l-1.7,1.1" class="color6f655d svgShape colorStrokefff svgStroke"></path><path fill="#ffffff" stroke="#6f655d" stroke-linecap="round" stroke-linejoin="round" d="M311.3,220.6l-13.5-3.4l-4.3-0.4l-1.9-0.6c0,0-1-0.1-2.4-0.3l-0.3,26.2l26.9-20.5
						C313.6,221,311.3,220.6,311.3,220.6z" class="colorfff svgShape colorStroke6f655d svgStroke"></path><path fill="#d9d9d9" stroke="#6f655d" stroke-linecap="round" stroke-linejoin="round" d="M308,178.7c-2.8-0.1-5.5,1-7.6,2.9c-3.1,3.2-3.3,5.2-4.5,6.4c-1.2,1.1-3.6,1-5.2,4.5s-2.9,10.8-2.6,13.2
						s2.4,3.1,4.3,3.4c2,0.3,5.6,0.5,5.6,0.5s-0.5,7.7-1,7.6c-0.5-0.1-3.3-0.3-3.3-0.3s-0.5,12-0.6,15l-0.1,3l18.8-14.3L308,219
						c0.1-2.4,0.5-4.7,1.2-7c0.6-1.8,1.3-3.6,2.2-5.2c0,0,5.9-2,9.1-6.4c2.6-3.5,2.5-8.6,1.1-12.6c-1.6-4.7-5.7-8.2-10.7-9
						C309.9,178.7,308.9,178.6,308,178.7z" class="colord9d9d9 svgShape colorStroke6f655d svgStroke"></path><path fill="none" stroke="#6f655d" stroke-linecap="round" stroke-linejoin="round" d="M297.7,190.4c-1,1.1-2.1,2.1-3.4,3c-1.6,1-0.4,3,1.6,3.7c2.1,0.7,2.7-0.2,2.7-0.2" class="colorStroke6f655d svgStroke"></path><path fill="none" stroke="#6f655d" stroke-linecap="round" stroke-linejoin="round" stroke-width=".75" d="M298.9,200.5c0,0-4.2-0.6-6.2-2.5c0.3,1.2,1.1,2.1,2.3,2.5C296.3,200.8,297.6,200.8,298.9,200.5z" class="colorStroke6f655d svgStroke"></path><path fill="none" stroke="#6f655d" stroke-linecap="round" stroke-linejoin="round" d="M304.9 187.7c1.5.5 2.5 1.8 2.7 3.3M301.4 186.1c-1-.9-2.6-1-3.7-.2" class="colorStroke6f655d svgStroke"></path><path fill="#6f655d" d="M303 191.7c-.4.7-1 1.1-1.4.9-.3-.2-.2-.9.2-1.6s1-1.1 1.4-.9S303.5 191 303 191.7zM297.2 188.9c-.4.7-1 1.1-1.4.9-.3-.2-.2-.9.2-1.6.4-.7 1-1.1 1.4-.9C297.7 187.4 297.6 188.2 297.2 188.9z" class="color6f655d svgShape"></path><path fill="none" stroke="#6f655d" stroke-linecap="round" stroke-linejoin="round" stroke-width=".75" d="M300.8,193.6c0,0,3.2,0.1,4.2,1.3" class="colorStroke6f655d svgStroke"></path><path fill="#6f655d" stroke="#6f655d" stroke-linecap="round" stroke-linejoin="round" d="M321.4,187.9c-1.6-4.7-5.7-8.2-10.7-9c-0.9-0.2-1.8-0.2-2.8-0.2c-1.1,0-2.1,0.1-3.1,0.4
						c0.4,0.6,0.9,1.1,1.5,1.5c0.9,0.7,3.6,0.4,6.5,1.6c2.9,1.2,4.6,5.3,2.8,7.8c-1.8,2.5-3.8-0.6-4.7,1.7c-0.4,1.1-0.8,2.3-1.1,3.4
						c0,0.4,0,0.8,0.1,1.2c0.3,1.2,1.1,1.8,0.7,2.4s-1.1,1.2-1.1,2c0,0.2,0.1,0.4,0.2,0.6c1.7-0.7,5.4-1.9,5.9,0.3
						c0.6,2.9-1.8,4.3-3.8,4.6c-1.5,0.1-3.1-0.1-4.5-0.6c0,0,0.7,1.7,3.7,2c0.2-0.4,0.3-0.7,0.3-0.7s5.9-2,9.1-6.4
						C322.9,196.9,322.8,191.8,321.4,187.9z" class="color6f655d svgShape colorStroke6f655d svgStroke"></path></g></g><g fill="#000000" class="color000 svgShape"><path fill="#ffffff" stroke="#6f655d" stroke-linecap="round" stroke-linejoin="round" d="M309.5,86.5c0-17.4-14.1-31.4-31.4-31.4l0,0c-1.8,0-3.6,0.2-5.4,0.5c0-24.7-19.9-44.8-44.6-44.8
			s-44.8,19.9-44.8,44.6c-1.4-0.2-2.9-0.3-4.3-0.3C161.6,55,147.5,69,147.4,86.4c-0.1,16.7,13,30.6,29.7,31.5l0,0H280l0,0
			C296.6,116.8,309.5,103.1,309.5,86.5z" class="colorfff svgShape colorStroke6f655d svgStroke"></path><polygon fill="#6f655d" points="244.7 85.3 224.7 68.7 204.7 85.3 209.1 85.3 209.1 138.6 240.3 138.6 240.3 85.3" class="color6f655d svgShape"></polygon><path fill="#90a0a4" stroke="#6f655d" stroke-linecap="round" stroke-linejoin="round" d="M228.2,128.4c-0.8,0-1.4,0.6-1.4,1.4l-0.1,1.9h-23.4l-1.4,32.8h44.9l1-24.8l0.4-7.9l0.1-3.3L228.2,128.4
			L228.2,128.4z" class="coloref9c80 svgShape colorStroke6f655d svgStroke"></path><polygon fill="#ffffff" stroke="#6f655d" stroke-linecap="round" stroke-linejoin="round" points="246.8 164.4 246.6 133.9 203.4 133.9 203.8 164" class="colorfff svgShape colorStroke6f655d svgStroke"></polygon><polygon fill="#ffffff" stroke="#6f655d" stroke-linecap="round" stroke-linejoin="round" points="246.8 164.4 244.8 133.9 201.7 133.9 202 164" class="colorfff svgShape colorStroke6f655d svgStroke"></polygon><polygon fill="#90a0a4" stroke="#6f655d" stroke-linecap="round" stroke-linejoin="round" points="201.9 164.4 195.9 133 241.1 133 246.8 164.4" class="coloref9c80 svgShape colorStroke6f655d svgStroke"></polygon><line x1="206.3" x2="206.3" y1="122.8" y2="124.9" fill="none" stroke="#6f655d" stroke-linecap="round" stroke-linejoin="round" class="colorStroke6f655d svgStroke"></line><line x1="206.3" x2="206.3" y1="111.2" y2="120.7" fill="none" stroke="#6f655d" stroke-linecap="round" stroke-linejoin="round" class="colorStroke6f655d svgStroke"></line><line x1="243" x2="243" y1="101" y2="109" fill="none" stroke="#6f655d" stroke-linecap="round" stroke-linejoin="round" class="colorStroke6f655d svgStroke"></line><line x1="229" x2="229" y1="165.8" y2="173.8" fill="none" stroke="#6f655d" stroke-linecap="round" stroke-linejoin="round" class="colorStroke6f655d svgStroke"></line><line x1="246.4" x2="246.4" y1="178" y2="196.1" fill="none" stroke="#6f655d" stroke-linecap="round" stroke-linejoin="round" class="colorStroke6f655d svgStroke"></line><line x1="246.4" x2="246.4" y1="171.7" y2="175.1" fill="none" stroke="#6f655d" stroke-linecap="round" stroke-linejoin="round" class="colorStroke6f655d svgStroke"></line><line x1="205.4" x2="205.4" y1="170.9" y2="177.4" fill="none" stroke="#6f655d" stroke-linecap="round" stroke-linejoin="round" class="colorStroke6f655d svgStroke"></line><line x1="209.6" x2="209.6" y1="200.9" y2="202.4" fill="none" stroke="#6f655d" stroke-linecap="round" stroke-linejoin="round" class="colorStroke6f655d svgStroke"></line><line x1="209.6" x2="209.6" y1="174.9" y2="198.8" fill="none" stroke="#6f655d" stroke-linecap="round" stroke-linejoin="round" class="colorStroke6f655d svgStroke"></line><path fill="#ffffff" stroke="#6f655d" stroke-linecap="round" stroke-linejoin="round" d="M428.1 124.3c0-10.2-8.2-18.4-18.4-18.5-1.1 0-2.2.1-3.2.3-.3-14.5-12.3-26.1-26.8-25.8-14.1.3-25.5 11.6-25.8 25.7-.8-.1-1.7-.2-2.6-.2-10.2 0-18.5 8.3-18.5 18.5 0 9.8 7.6 17.8 17.3 18.4l0 0h60.5l0 0C420.6 142.1 428.1 134.1 428.1 124.3zM360.7 25.6c0-5.8-4.7-10.4-10.4-10.4l0 0c-.6 0-1.2 0-1.8.2 0-8.2-6.6-14.8-14.8-14.8-8.2 0-14.8 6.6-14.8 14.8-.5-.1-1-.1-1.4-.1-5.8 0-10.4 4.7-10.3 10.5 0 5.5 4.3 10 9.7 10.3l0 0H351l0 0C356.5 35.7 360.7 31.1 360.7 25.6z" class="colorfff svgShape colorStroke6f655d svgStroke"></path></g></svg></g></svg>