<svg width="239" height="75" viewBox="0 0 239 75" fill="none" xmlns="http://www.w3.org/2000/svg">
<path d="M107.2 56H113.85V21H107.2V56ZM132.387 56.65C136.687 56.65 140.637 55.1 143.237 52.45L139.537 48.65C137.937 50.1 135.287 51 132.637 51C128.637 51 125.937 48.95 125.487 45.85H144.537C145.637 36.7 140.687 30.8 131.737 30.8C123.987 30.8 118.737 36 118.737 43.7C118.737 51.6 124.037 56.65 132.387 56.65ZM125.587 41.45C126.087 38.15 128.437 36.25 131.937 36.25C135.637 36.25 138.037 38.25 138.287 41.45H125.587ZM161.288 56.55C165.088 56.55 168.238 55.25 171.038 52.55L167.138 48.35C165.638 49.9 163.638 50.75 161.438 50.75C157.288 50.75 154.488 47.85 154.488 43.65C154.488 39.45 157.338 36.55 161.438 36.55C163.488 36.55 165.438 37.35 166.838 38.75L170.688 34.6C168.038 32.05 164.838 30.75 161.188 30.75C153.238 30.75 147.888 35.95 147.888 43.65C147.888 51.5 153.138 56.55 161.288 56.55ZM186.119 56.4C188.319 56.4 190.119 56.05 192.169 55.1L190.419 49.95C189.569 50.35 188.419 50.65 187.469 50.65C185.469 50.65 184.319 49.5 184.319 47.25V36.75H190.969V31.3H184.319V24.3L177.719 25V31.3H173.269V36.75H177.719V47.25C177.719 53.7 181.069 56.4 186.119 56.4ZM195.97 56H202.62V31.3H195.97V56ZM195.27 24.4C195.27 26.6 196.97 28.2 199.32 28.2C201.67 28.2 203.42 26.6 203.42 24.4C203.42 22.1 201.67 20.5 199.32 20.5C196.97 20.5 195.27 22.1 195.27 24.4ZM220.857 56.55C229.007 56.55 234.207 51.2 234.207 43.65C234.207 36.1 229.007 30.75 220.857 30.75C212.707 30.75 207.507 36.1 207.507 43.65C207.507 51.2 212.707 56.55 220.857 56.55ZM214.107 43.65C214.107 39.7 216.757 36.55 220.857 36.55C224.957 36.55 227.607 39.7 227.607 43.65C227.607 47.6 224.957 50.75 220.857 50.75C216.757 50.75 214.107 47.6 214.107 43.65Z" fill="#2B6879"/>
<path d="M20 12C20 12 7.25 13.5 9.8 27.375C12.35 41.25 3 42 3 42" stroke="#2B6879" stroke-opacity="0.5" stroke-width="5" stroke-linecap="square"/>
<path d="M20 72C20 72 7.25 70.5 9.8 56.625C12.35 42.75 3 42 3 42" stroke="#2B6879" stroke-opacity="0.5" stroke-width="5" stroke-linecap="square"/>
<path d="M68 12C68 12 80.75 13.5 78.2 27.375C75.65 41.25 85 42 85 42" stroke="#2B6879" stroke-opacity="0.5" stroke-width="5" stroke-linecap="square"/>
<path d="M68 72C68 72 80.75 70.5 78.2 56.625C75.65 42.75 85 42 85 42" stroke="#2B6879" stroke-opacity="0.5" stroke-width="5" stroke-linecap="square"/>
<rect x="26" y="27" width="36" height="6" fill="#4E144A"/>
<rect x="26" y="39" width="36" height="6" fill="#4E144A"/>
<rect x="26" y="51" width="36" height="6" fill="#4E144A"/>
</svg>
