<?xml version="1.0" encoding="utf-8"?>
<!-- Generator: Adobe Illustrator 19.2.1, SVG Export Plug-In . SVG Version: 6.00 Build 0)  -->
<svg version="1.1" id="Camada_1" xmlns="http://www.w3.org/2000/svg" xmlns:xlink="http://www.w3.org/1999/xlink" x="0px" y="0px"
	 viewBox="0 0 494.6 452.9" style="enable-background:new 0 0 494.6 452.9;" xml:space="preserve">
<style type="text/css">
	.st0{fill:#EF9C80;}
	.st1{opacity:0.8;fill:#FFFFFF;enable-background:new    ;}
	.st2{fill:#0E1C30;}
	.st3{fill:#437A67;}
	.st4{opacity:0.65;fill:#FFFFFF;enable-background:new    ;}
	.st5{fill:#CCCCCC;}
	.st6{opacity:0.65;fill:#E5E5E5;enable-background:new    ;}
	.st7{fill:#FFFFFF;}
	.st8{clip-path:url(#SVGID_5_);}
	.st9{clip-path:url(#SVGID_6_);}
	.st10{opacity:0.24;}
	.st11{clip-path:url(#SVGID_11_);}
	.st12{clip-path:url(#SVGID_12_);}
	.st13{fill:#DD6326;}
	.st14{fill:#FFB95C;}
</style>
<g>
	<g id="freepik--background-simple--inject-3">
		<path class="st0" d="M439.9,68.3c0,0-30-58.5-96.5-67.1S230.5,34.8,181.6,56.4c-25.6,11.3-54.9,6.9-82,12.4
			C12.6,86.4-20.2,196.5,16,259c31.4,54.2,86.6,82.4,170.6,88.8s143,14,218.2-39S475,145.2,439.9,68.3z"/>
		<path class="st1" d="M439.9,68.3c0,0-30-58.5-96.5-67.1S230.5,34.8,181.6,56.4c-25.6,11.3-54.9,6.9-82,12.4
			C12.6,86.4-20.2,196.5,16,259c31.4,54.2,86.6,82.4,170.6,88.8s143,14,218.2-39S475,145.2,439.9,68.3z"/>
	</g>
	<g id="freepik--Books--inject-3">
		<path class="st2" d="M421.7,182.9L421.7,182.9c-0.5,0-50.4-0.9-51.7-0.9s-5.5,0-7.5-2s-6.2-7.9-6.3-8.1c-0.1-0.1-0.1-0.4-0.1-0.5
			l12.9-53.9c0.1-0.4,0.4-0.5,0.7-0.5c0.4,0.1,0.5,0.4,0.5,0.7l0,0l-12.8,53.7c0.9,1.1,4.4,6.2,6,7.8s5.4,1.6,6.6,1.6
			s45.4,0.7,51.2,0.9l9.9-65.4c0-0.4,0.4-0.6,0.7-0.5c0.4,0,0.6,0.4,0.5,0.7l0,0l-9.9,66C422.3,182.7,421.9,182.9,421.7,182.9z"/>
		<path class="st2" d="M380.3,108L380.3,108l-4.1-0.1c-0.4,0-0.6-0.2-0.6-0.6s0.2-0.6,0.6-0.6l4.1,0.1c0.4,0,0.6,0.2,0.6,0.6
			S380.7,108,380.3,108L380.3,108z"/>
		<path class="st2" d="M359.2,173.1c-0.4,0-0.6-0.2-0.6-0.6c0-0.4,0.2-0.6,0.6-0.6l53.9-0.1l11.3-62.8l-39.2-0.7
			c-0.4,0-0.6-0.2-0.6-0.6s0.2-0.6,0.6-0.6l39.9,0.7c0.1,0,0.4,0.1,0.5,0.2s0.1,0.4,0.1,0.5l-11.6,64c0,0.2-0.2,0.5-0.6,0.5
			L359.2,173.1L359.2,173.1z"/>
		<path class="st2" d="M419,179.8L419,179.8l-52.2-1.4c-0.1,0-0.4-0.1-0.5-0.2l-4.4-4.9c-0.2-0.2-0.2-0.6,0-0.9
			c0.2-0.2,0.6-0.2,0.9,0l0,0l4.3,4.7l51.4,1.4l9.4-56.4l-3.8-5.4c-0.2-0.2-0.1-0.6,0.1-0.9l0,0c0.2-0.2,0.6-0.1,0.9,0.1l0,0
			l4.1,5.7c0.1,0.1,0.1,0.2,0.1,0.5l-9.5,57.1C419.6,179.6,419.3,179.8,419,179.8z"/>
		<path class="st2" d="M371.4,175.8h7.5c0,0-1.2,6-1.8,11.6c-0.6,5.5-1,12.9-1,12.9l-4.4-8.1l-5.4,6.9L371.4,175.8z"/>
		<path class="st2" d="M53.3,188.2c-0.2,0-0.5-0.1-0.6-0.4c-0.1-0.4,0-0.6,0.4-0.9L85,174.2c0.6-1.8,1.2-3.8,1.7-5.7
			c0.1-0.9-0.4-2.2-1.6-3.8c-0.5-0.6-15.5-22.7-18-26.2L30.4,157c-0.2,0.1-0.6,0-0.9-0.2l0,0c-0.1-0.2,0-0.6,0.2-0.9l0,0L67,137.1
			c0.2-0.1,0.6,0,0.7,0.2c0.2,0.2,17.7,26,18.2,26.6c0.9,1.2,2.1,3.1,1.7,4.7c-0.4,1.6-1.7,6-1.8,6.2c0,0.1-0.2,0.4-0.4,0.4
			l-32.1,12.9C53.4,188.2,53.4,188.2,53.3,188.2z"/>
		<path class="st2" d="M45.7,188.5c-0.2,0-0.4-0.1-0.5-0.2l-1.5-2.1c-0.2-0.2-0.1-0.6,0.1-0.9s0.6-0.1,0.9,0.1l1.5,2.1
			c0.1,0.2,0.1,0.6-0.1,0.9C45.9,188.5,45.8,188.5,45.7,188.5z"/>
		<path class="st2" d="M42.5,183.8c-0.2,0-0.4-0.1-0.5-0.2L28,163c-0.1-0.1-0.1-0.4-0.1-0.5s0.1-0.4,0.4-0.4L65,144.9
			c0.2-0.1,0.6,0,0.7,0.2l19.8,27.6c0.2,0.2,0.1,0.6-0.1,0.9s-0.6,0.1-0.9-0.1l0,0l-19.7-27.3l-35.7,16.7l13.7,20
			c0.2,0.2,0.1,0.6-0.1,0.9C42.6,183.8,42.5,183.8,42.5,183.8z"/>
		<path class="st2" d="M84,171.8L84,171.8c-0.5-0.1-0.6-0.4-0.6-0.7l0.9-3.8l-17.7-26.4l-31.8,15.5l-1.4,3.9
			c-0.1,0.4-0.5,0.5-0.7,0.4c-0.4-0.1-0.5-0.5-0.4-0.7l1.4-4.2c0-0.1,0.1-0.2,0.4-0.4l32.5-15.9c0.2-0.1,0.6,0,0.7,0.2l18.2,27.1
			c0.1,0.1,0.1,0.2,0.1,0.5l-0.9,4.1C84.6,171.7,84.4,171.8,84,171.8z"/>
		<path class="st2" d="M82.1,165.5l-2.7-3.8c0,0,3.4-1.5,6.7-3.2c3.2-1.7,6.9-4.2,6.9-4.2l-2.6,5.2l5.4,0.2L82.1,165.5z"/>
		<path class="st2" d="M72.5,283L72.5,283c-0.2,0-0.5-0.1-0.5-0.4l-22.5-43.1c0-0.1,0-0.4,0-0.5s0.1-0.2,0.4-0.4l2.6-1.2
			c0.4-0.1,0.6,0,0.9,0.4c0.1,0.2,0,0.6-0.2,0.7l-2,1L73,281.2l37.2-39.5c0.1-0.1,0.1-0.1,0.2-0.1l45.3-14l-22.4-35.7l-1.6,0.1
			c-0.4,0-0.6-0.2-0.6-0.5l0,0c0-0.4,0.2-0.6,0.6-0.6l2-0.1c0.2,0,0.5,0.1,0.6,0.2l23,36.7c0.1,0.1,0.1,0.4,0,0.5s-0.2,0.4-0.4,0.4
			L111,242.8l-37.6,40C72.8,283,72.7,283,72.5,283z"/>
		<path class="st2" d="M73,277.2L73,277.2c-0.2,0-0.5-0.1-0.5-0.4L51,235.7c-0.1-0.2-0.1-0.6,0.1-0.7c0.1-0.1,10.2-8.4,15-19.8
			c4.4-10.6,11.9-15.9,20.3-14c0.1,0,0.4,0.1,0.4,0.4l20.1,36.2c0.1,0.2,0,0.6-0.2,0.9c-0.1,0.1-0.2,0.1-0.5,0.1
			c-0.4-0.1-8.3-1.7-10,5.9c-2,8.1-10.3,18.6-14.4,23.6l-0.5,0.6c-2.5,3-5,5.8-7.9,8.4C73.3,277.1,73.2,277.2,73,277.2z M52.2,235.6
			l20.9,40c2.6-2.3,4.9-4.9,7.1-7.8l0.5-0.6c3.9-4.9,12.3-15.3,14.2-23.2c1.6-6.9,7.6-7.1,10.2-7l-19.3-35
			c-7.5-1.5-14.5,3.6-18.6,13.4C62.8,226,54.2,233.9,52.2,235.6z"/>
		<path class="st2" d="M106.3,238.5c-0.2,0-0.4-0.1-0.5-0.4l-20.1-36.2c0-0.1,0-0.2,0-0.4c1.5-6.8,8.9-9.9,24.1-9.9
			c13.3,0,18.7-4.2,18.7-4.3c0.1-0.1,0.4-0.1,0.5-0.1s0.4,0.1,0.4,0.2l22.5,36.7c0.1,0.2,0.1,0.6-0.1,0.9c-0.1,0-1.6,1.1-11,3.9
			c-6.4,2.1-13.5,1.7-19.2,1.6c-2.2-0.1-4.6-0.1-6.8,0c-5.4,0.5-7.8,7.4-7.8,7.4C106.9,238.2,106.6,238.5,106.3,238.5L106.3,238.5z
			 M86.9,201.5l19.3,35c1-2.2,3.6-6.7,8.4-7c2.3-0.1,4.7-0.1,7,0c5.7,0.2,12.6,0.5,18.8-1.5c3.4-1,6.8-2.2,10.1-3.6l-21.8-35.6
			c-1.7,1.1-7.5,4.2-19,4.2C95.4,192.9,88.3,195.6,86.9,201.5z"/>
		<path class="st2" d="M88.7,262.5c-0.1,0-0.2,0-0.4-0.1c-0.2-0.2-0.4-0.6-0.1-0.9c2.3-3,4.3-5.7,5.9-8c1.8-2.8,3.9-5.4,6.4-7.8
			c2.1-1.8,4.4-3.3,7-4.6c0.2-0.1,0.6,0,0.7,0.4l0,0c0.1,0.4,0,0.6-0.4,0.9c-2.5,1.1-4.7,2.6-6.7,4.3c-2.3,2.3-4.4,4.8-6.2,7.6
			c-1.7,2.3-3.6,4.9-5.9,8C89,262.5,88.9,262.5,88.7,262.5z"/>
		<path class="st2" d="M111.7,239.4c-0.1,0-0.2,0-0.4-0.1c-0.2-0.2-0.4-0.6-0.1-0.9c2.3-2.8,5.7-4.7,9.2-5.2l2.2-0.1
			c9.5-0.5,18.7-2.6,27.5-6.2c0.4-0.1,0.7,0,0.7,0.4c0.1,0.4,0,0.7-0.4,0.7c-8.9,3.6-18.3,5.7-27.8,6.3l-2.2,0.1
			c-3.3,0.5-6.3,2.1-8.4,4.7C112.1,239.4,111.9,239.4,111.7,239.4z"/>
		<path class="st2" d="M58.9,241.4c-0.4,0-0.6-0.2-0.6-0.6c0-0.1,0-0.4,0.1-0.4c4.2-4.8,8.1-9.9,11.7-15.1c7-10,12.1-14,17.6-14
			c0.4,0,0.6,0.2,0.6,0.6s-0.2,0.6-0.6,0.6c-5.2,0-10,3.9-16.6,13.4c-3.7,5.3-7.6,10.3-11.8,15.3C59.1,241.4,59,241.4,58.9,241.4z"
			/>
		<path class="st2" d="M62.7,247.8c-0.1,0-0.2,0-0.4-0.1c-0.2-0.2-0.2-0.6,0-0.9l0,0c4.2-4.8,8.1-9.9,11.7-15.1
			c6.9-10,12.1-14,17.6-14c0.4,0,0.6,0.2,0.6,0.6s-0.2,0.6-0.6,0.6c-5.2,0-10,3.9-16.6,13.4c-3.7,5.3-7.6,10.3-11.8,15.3
			C63.1,247.7,62.9,247.8,62.7,247.8z"/>
		<path class="st2" d="M66.6,254.2c-0.4,0-0.6-0.2-0.6-0.6c0-0.1,0-0.2,0.1-0.4c4.2-4.8,8.1-9.9,11.7-15.1c6.9-10,12.1-14,17.6-14
			c0.4,0,0.6,0.2,0.6,0.6c0,0.4-0.2,0.6-0.6,0.6c-5.2,0-10,3.9-16.6,13.4C75.1,244,71.2,249,67,254C67,254.1,66.9,254.2,66.6,254.2z
			"/>
		<path class="st2" d="M70.6,260.5c-0.1,0-0.2,0-0.4-0.1c-0.2-0.2-0.2-0.6,0-0.9l0,0c4.2-4.8,8.1-9.9,11.7-15.1
			c6.9-10,12.1-14,17.6-14c0.4,0,0.6,0.2,0.6,0.6c0,0.4-0.2,0.6-0.6,0.6c-5.2,0-10,3.9-16.6,13.4c-3.7,5.3-7.6,10.3-11.8,15.3
			C70.9,260.5,70.7,260.5,70.6,260.5z"/>
		<path class="st2" d="M94.6,209.6h-0.2c-0.4-0.1-0.5-0.5-0.4-0.7c0-0.1,2.2-5.8,9.9-5.8c14.3,0,23.6-2.2,24.9-5.9
			c0.1-0.4,0.5-0.5,0.9-0.4s0.5,0.5,0.4,0.9c-2,5.9-17.1,6.8-26.1,6.8c-6.8,0-8.6,4.8-8.7,5C95.1,209.5,94.8,209.6,94.6,209.6z"/>
		<path class="st2" d="M99,216.9c-0.1,0-0.2,0-0.4-0.1c-0.2-0.2-0.4-0.6-0.1-0.9c0.1-0.2,3.7-4.7,13.2-4.7c10.2,0,17.9-2.3,22.7-7.1
			c0.2-0.2,0.6-0.2,0.9,0s0.2,0.6,0,0.9l0,0c-5,5-12.9,7.6-23.5,7.6c-8.9,0-12.2,4.2-12.2,4.2C99.4,216.9,99.1,216.9,99,216.9z"/>
		<path class="st2" d="M102,224.3c-0.1,0-0.1,0-0.2-0.1c-0.2-0.1-0.5-0.5-0.2-0.7l0,0c2.3-4.3,6.9-6.9,11.8-6.8
			c10.3,0,19.3-2.2,24.1-5.8c0.2-0.2,0.6-0.1,0.9,0.1l0,0c0.2,0.2,0.1,0.6-0.1,0.9c-7.3,5.4-19.8,6-24.9,6c-4.4-0.2-8.6,2.1-10.7,6
			C102.3,224.2,102.1,224.3,102,224.3z"/>
		<path class="st2" d="M105.3,229.7L105.3,229.7c-0.5-0.1-0.6-0.5-0.5-0.7s1.7-5.3,10.3-5.8c9-0.5,17.9-2.5,26.2-5.8
			c0.2-0.1,0.6-0.1,0.9,0.2c0.1,0.2,0.1,0.6-0.2,0.9h-0.1c-8.5,3.4-17.5,5.4-26.6,5.9c-7.8,0.5-9.2,4.8-9.2,4.9
			C105.8,229.5,105.5,229.7,105.3,229.7z"/>
		<path class="st2" d="M343.8,85.9L343.8,85.9c-0.2,0-0.4-0.1-0.5-0.2L326,57.5l-33.1-18.1c-0.1-0.1-0.2-0.2-0.4-0.5
			c0-0.2,0-0.4,0.2-0.5L317.5,16c0.1-0.1,0.2-0.1,0.5-0.1c0.1,0,0.4,0.1,0.4,0.2l1.2,1.5c0.2,0.2,0.1,0.6-0.1,0.9
			c-0.2,0.1-0.5,0.1-0.7,0l-0.9-1L294.2,39l32.5,17.7c0.1,0,0.1,0.1,0.2,0.2l17,27.5l19.7-20.8l-0.4-1c-0.1-0.4,0-0.6,0.4-0.7
			c0.4-0.1,0.6,0,0.7,0.4l0.5,1.4c0.1,0.2,0,0.5-0.1,0.6L344.3,86C344.2,85.7,344,85.9,343.8,85.9z"/>
		<path class="st2" d="M328.7,54.3c-0.1,0-0.1,0-0.2,0c-0.2-0.1-0.4-0.4-0.4-0.5c0-0.2-0.2-5.7-5.4-5.4c-5.8,0.1-14.3-3.7-18.3-5.4
			l-0.5-0.2c-2.5-1.1-4.8-2.3-7-3.8c-0.1-0.1-0.2-0.2-0.2-0.5c0-0.2,0.1-0.4,0.2-0.5l23.6-21.7c0.2-0.2,0.6-0.2,0.7,0
			c4.7,3.3,10.1,5.5,15.8,6.5c7.9,1.1,12.8,5.3,13.1,11.2c0,0.1,0,0.4-0.1,0.5l-20.7,19.7C329.1,54.3,328.8,54.3,328.7,54.3z
			 M322.8,47c3.2,0,5.9,2.2,6.3,5.4l19.7-18.6c-0.4-5.2-4.7-8.7-11.9-9.9c-5.7-1-11.1-3.2-15.9-6.4l-22.8,20.7
			c2,1.2,4.1,2.3,6.2,3.3l0.5,0.2c3.9,1.7,12.3,5.5,17.9,5.4h0.1V47H322.8z"/>
		<path class="st2" d="M345.3,82.1c-0.1,0-0.2,0-0.4-0.1c-0.1-0.1-1.1-1-4.6-6.7c-2.5-3.9-3.6-8.7-4.4-12.7
			c-0.2-1.5-0.7-3.1-1.1-4.6c-1.2-3.4-6-3.8-6.2-3.8s-0.5-0.1-0.5-0.4c-0.1-0.2,0-0.5,0.1-0.6L349,33.7c0.1-0.1,0.2-0.1,0.4-0.1
			c4.8-0.2,8.3,4.2,10.8,14.5c2.3,8.9,6,11.6,6,11.6c0.1,0.1,0.2,0.2,0.2,0.5c0,0.1,0,0.4-0.1,0.5L345.7,82
			C345.7,81.9,345.4,82.1,345.3,82.1z M330,53.4c1.7,0.4,4.9,1.5,5.9,4.4c0.5,1.5,0.9,3.1,1.2,4.7c0.9,3.8,1.8,8.5,4.2,12.2
			c1.2,2.1,2.6,3.9,3.9,5.9l19.6-20.4c-1.2-1.1-4.1-4.4-5.9-11.8c-2.5-9.2-5.4-13.5-9.4-13.5l0,0L330,53.4z"/>
		<path class="st2" d="M326.3,55.9c-0.2,0-0.4-0.1-0.5-0.2c-1.1-1.4-2.5-2.7-3.9-3.7c-2-1.1-3.9-2.1-6-2.8c-1.8-0.7-3.9-1.5-6.4-2.6
			c-0.4-0.1-0.5-0.5-0.4-0.9c0.1-0.2,0.5-0.5,0.7-0.4l0,0c2.3,1.1,4.4,1.8,6.3,2.6c2.2,0.7,4.3,1.7,6.4,3c1.6,1.1,3.1,2.5,4.3,3.9
			c0.2,0.2,0.1,0.6-0.1,0.9C326.6,55.9,326.5,55.9,326.3,55.9z"/>
		<path class="st2" d="M343.2,81.8c-0.2,0-0.4-0.1-0.5-0.2c-3.9-5.3-7-11.2-9-17.5c-0.1-0.5-0.4-1-0.5-1.5c-0.9-2.1-2.5-3.7-4.4-4.7
			c-0.4-0.1-0.5-0.5-0.4-0.7s0.5-0.5,0.7-0.4h0.1c2.3,1.1,4.2,3,5.2,5.4c0.1,0.5,0.4,1,0.5,1.5c2,6.2,4.9,12.1,8.9,17.2
			c0.2,0.2,0.1,0.6-0.1,0.9l0,0C343.5,81.8,343.3,81.9,343.2,81.8z"/>
		<path class="st2" d="M342.7,37.5c-0.2,0-0.5-0.2-0.6-0.5c-0.9-3.3-4.3-5.8-11.7-8.6c-4.2-1.5-8.3-3.2-12.2-5.2
			c-0.4-0.1-0.5-0.5-0.4-0.9s0.5-0.5,0.9-0.4c0,0,0,0,0.1,0c3.9,2,8,3.7,12.1,5.2c7.9,3,11.5,5.7,12.4,9.5c0.1,0.4-0.1,0.6-0.5,0.7
			l0,0L342.7,37.5z"/>
		<path class="st2" d="M339.2,41.2c-0.2,0-0.5-0.2-0.6-0.5c-0.9-3.3-4.3-5.8-11.7-8.6c-4.2-1.5-8.3-3.2-12.2-5.3
			c-0.4-0.1-0.5-0.5-0.4-0.9s0.5-0.5,0.9-0.4c0,0,0,0,0.1,0c3.9,2,8,3.7,12.1,5.2c7.9,3,11.5,5.7,12.4,9.5c0.1,0.4-0.1,0.6-0.4,0.7
			l0,0C339.3,41.2,339.3,41.2,339.2,41.2z"/>
		<path class="st2" d="M335.6,44.9c-0.2,0-0.5-0.2-0.6-0.5c-0.9-3.3-4.3-5.8-11.7-8.6c-4.2-1.5-8.3-3.2-12.2-5.2
			c-0.2-0.1-0.4-0.5-0.2-0.9c0.1-0.4,0.5-0.4,0.9-0.2l0,0c3.9,2,8,3.7,12.1,5.2c7.9,3,11.5,5.7,12.4,9.5c0.1,0.4-0.1,0.6-0.5,0.7
			l0,0H335.6z"/>
		<path class="st2" d="M332,48.6c-0.2,0-0.5-0.2-0.6-0.5c-0.9-3.3-4.3-5.8-11.7-8.6c-4.2-1.5-8.3-3.2-12.2-5.2
			c-0.2-0.1-0.4-0.5-0.2-0.9c0.1-0.2,0.5-0.4,0.9-0.2c3.9,2,8,3.7,12.1,5.2c7.9,3,11.5,5.7,12.4,9.5c0.1,0.4-0.1,0.6-0.5,0.7l0,0
			H332z"/>
		<path class="st2" d="M359.7,62.6L359.7,62.6c-4.2-0.2-7.3-9-9.2-16.3c-1.1-4.4-4.6-4.8-4.7-4.8c-0.4,0-0.6-0.4-0.5-0.7
			c0-0.4,0.4-0.6,0.6-0.5c0.1,0,4.3,0.5,5.8,5.7c2.5,9.5,5.5,15.3,8.1,15.4c0.4,0,0.6,0.4,0.6,0.6l0,0
			C360.3,62.3,360.1,62.6,359.7,62.6z"/>
		<path class="st2" d="M355.8,67.4c-0.1,0-0.2,0-0.4-0.1c-4.2-2.5-7.3-7.4-9.1-14.4c-1.5-5.8-4.8-7.3-4.8-7.3
			c-0.2-0.1-0.4-0.5-0.2-0.9c0.1-0.2,0.5-0.4,0.7-0.2c0.1,0,3.8,1.7,5.5,8.1c1.7,6.8,4.7,11.3,8.6,13.7c0.2,0.1,0.4,0.5,0.2,0.9
			C356.3,67.3,356,67.4,355.8,67.4z"/>
		<path class="st2" d="M351.7,70.6c-0.1,0-0.2,0-0.4-0.1c-4.9-3.9-7.5-12.2-8.4-15.6c-0.6-3-2.8-5.2-5.7-5.9
			c-0.4-0.1-0.5-0.4-0.5-0.7c0.1-0.4,0.4-0.6,0.7-0.5c3.3,0.9,5.9,3.4,6.6,6.9c1.7,6.8,4.8,12.4,7.9,14.9c0.2,0.2,0.4,0.6,0.1,0.9
			l0,0C352.1,70.5,352,70.6,351.7,70.6z"/>
		<path class="st2" d="M348.1,74.3c-0.2,0-0.4-0.1-0.5-0.2c-3.8-5-6.6-10.7-8.6-16.7c-1.6-4.9-4.6-5.2-4.7-5.2
			c-0.4,0-0.6-0.4-0.6-0.6c0-0.4,0.2-0.6,0.5-0.6c0,0,0,0,0.1,0s3.9,0.2,5.8,6c1.8,5.9,4.7,11.5,8.4,16.4c0.2,0.2,0.1,0.6-0.1,0.9
			C348.4,74.3,348.3,74.3,348.1,74.3z"/>
		<path class="st2" d="M124,100.6L124,100.6l-4.5-1.1c-0.4-0.1-0.5-0.4-0.5-0.7c0-0.1,0-0.1,0.1-0.1l20.6-32.3
			c0.1-0.2,0.6-0.4,0.9-0.2c0.2,0.1,0.4,0.6,0.2,0.9l-20.1,31.5l3.2,0.7L144.2,69c0.1-0.2,0.5-0.4,0.9-0.2l32.4,18.7l3.6-3.6
			l-35.5-18.5c-0.2-0.1-0.4-0.5-0.2-0.9c0.1-0.4,0.5-0.4,0.9-0.2l36.2,19c0.1,0.1,0.2,0.2,0.4,0.5c0,0.2,0,0.4-0.1,0.5l-4.4,4.4
			c-0.2,0.2-0.5,0.2-0.7,0.1l-32.4-18.6l-20.2,30.2C124.4,100.6,124.1,100.6,124,100.6z"/>
		<path class="st2" d="M180.7,139.1c-0.1,0-0.2,0-0.2-0.1l-27.2-15.5c-0.1-0.1-0.2-0.2-0.4-0.5L144,69.5c0-0.4,0.1-0.6,0.5-0.7
			c0.4,0,0.6,0.1,0.7,0.5l0,0l8.9,53.1l26,14.9l-3.8-46.1c0-0.4,0.2-0.6,0.6-0.6s0.6,0.2,0.6,0.6l0,0l3.8,47.3
			c0,0.2-0.1,0.5-0.2,0.6C180.9,138.9,180.8,139.1,180.7,139.1z"/>
		<path class="st2" d="M180.7,139.1c-0.4,0-0.6-0.2-0.6-0.6c0-0.1,0-0.2,0.1-0.2l4.4-8.1l-3.3-45.9c0-0.4,0.2-0.6,0.6-0.6
			s0.6,0.2,0.6,0.6l3.3,46.2c0,0.1,0,0.2-0.1,0.4l-4.4,8C181.2,138.9,180.9,139.1,180.7,139.1z"/>
		<path class="st2" d="M135.1,148.6H135c-0.2,0-0.4-0.2-0.5-0.5l-9.5-43.3c-0.1-0.4,0.1-0.6,0.5-0.7s0.6,0.1,0.7,0.5l0,0l9.1,42
			l17.6-24c0.2-0.2,0.6-0.4,0.9-0.1s0.4,0.6,0.1,0.9l-18.3,25C135.5,148.4,135.3,148.6,135.1,148.6z"/>
		<path class="st2" d="M135.1,148.6L135.1,148.6l-5-0.5c-0.2,0-0.5-0.2-0.5-0.5L119,99.2c-0.1-0.4,0.1-0.6,0.5-0.7s0.6,0.1,0.7,0.5
			l10.5,47.9l4.6,0.5c0.4,0,0.6,0.2,0.6,0.6S135.5,148.6,135.1,148.6L135.1,148.6z"/>
		<path class="st2" d="M131.2,108.4c-0.4,0-0.6-0.2-0.6-0.6c0-0.1,0-0.2,0.1-0.4l14.5-20.1c0.1-0.2,0.5-0.4,0.9-0.1l0,0
			c0.2,0.2,0.4,0.6,0.1,0.9l0,0l-14.5,20.1C131.5,108.4,131.4,108.4,131.2,108.4z"/>
		<path class="st2" d="M132.3,117.9c-0.1,0-0.2,0-0.4-0.1c-0.2-0.2-0.4-0.6-0.1-0.9l14.4-20.1c0.2-0.2,0.6-0.4,0.9-0.1l0,0
			c0.2,0.2,0.4,0.6,0.1,0.9l-14.4,20.1C132.6,117.8,132.5,117.9,132.3,117.9z"/>
		<path class="st2" d="M133.4,127.4c-0.1,0-0.2,0-0.4-0.1c-0.2-0.2-0.4-0.6-0.1-0.9l14.4-20.1c0.2-0.2,0.6-0.4,0.9-0.1l0,0
			c0.2,0.2,0.4,0.6,0.1,0.9l-14.4,20.1C133.7,127.2,133.6,127.4,133.4,127.4z"/>
		<path class="st2" d="M134.5,136.9c-0.1,0-0.2,0-0.4-0.1c-0.2-0.2-0.4-0.6-0.1-0.9l0,0l14.5-20.1c0.2-0.2,0.6-0.4,0.9-0.1
			s0.4,0.6,0.1,0.9l0,0l-14.5,20C134.8,136.7,134.7,136.9,134.5,136.9z"/>
		<path class="st2" d="M171.3,100.2c-0.1,0-0.2,0-0.4-0.1L151.4,89c-0.2-0.1-0.4-0.5-0.2-0.9c0.1-0.2,0.5-0.4,0.9-0.2L171.6,99
			c0.2,0.1,0.4,0.5,0.2,0.9C171.7,100,171.4,100.2,171.3,100.2z"/>
		<path class="st2" d="M171.3,109c-0.1,0-0.2,0-0.4-0.1l-19.5-11.1c-0.4-0.1-0.5-0.5-0.2-0.9c0.2-0.4,0.5-0.5,0.9-0.2
			c0,0,0.1,0,0.1,0.1l19.5,11.1c0.2,0.1,0.4,0.5,0.2,0.9C171.7,108.9,171.4,109,171.3,109z"/>
		<path class="st2" d="M174,118.5c-0.1,0-0.2,0-0.2-0.1l-19.5-11.1c-0.2-0.1-0.4-0.5-0.2-0.9c0.1-0.2,0.5-0.4,0.9-0.2l19.5,11.1
			c0.2,0.1,0.4,0.5,0.2,0.9l0,0C174.4,118.4,174.3,118.5,174,118.5z"/>
		<path class="st2" d="M174.6,127.9c-0.1,0-0.2,0-0.4-0.1l-19.5-11.1c-0.2-0.1-0.4-0.5-0.2-0.9s0.5-0.4,0.9-0.2l19.5,11.1
			c0.2,0.1,0.4,0.5,0.2,0.9C175,127.7,174.7,127.9,174.6,127.9L174.6,127.9z"/>
		<path class="st2" d="M416.5,303.7c-0.1,0-0.1,0-0.2,0l-37.9-15.1c-0.1-0.1-0.4-0.2-0.4-0.4c0-0.2,0-0.4,0.1-0.5l3.9-4.9
			c0.1-0.2,0.5-0.2,0.7-0.1l34,15.3l17.1-32c0.1-0.2,0.4-0.4,0.6-0.4l4.6,0.6c0.2,0,0.4,0.1,0.5,0.4c0.1,0.1,0.1,0.4,0,0.6
			l-17.2,34.1c-0.1,0.2-0.5,0.4-0.9,0.2c-0.2-0.1-0.4-0.5-0.2-0.9l16.9-33.4l-3.2-0.5l-17.1,32c-0.1,0.2-0.5,0.4-0.7,0.2L383,283.6
			l-3.2,3.9l37.1,14.8c0.4,0.1,0.5,0.5,0.4,0.7C417,303.6,416.7,303.7,416.5,303.7z"/>
		<path class="st2" d="M417.2,299.2c-0.2,0-0.5-0.1-0.6-0.5l-14.2-52l-27.3-12.2l8.4,45.6c0,0.4-0.1,0.6-0.5,0.7
			c-0.4,0-0.6-0.1-0.7-0.5l-8.6-46.7c0-0.2,0-0.5,0.2-0.6c0.1-0.1,0.4-0.1,0.6-0.1l28.7,12.8c0.1,0.1,0.2,0.2,0.4,0.4l14.2,52.2
			C417.8,298.7,417.6,299,417.2,299.2L417.2,299.2z"/>
		<path class="st2" d="M378.7,288.6c-0.2,0-0.6-0.2-0.6-0.5l-8-45.6c0-0.1,0-0.2,0-0.4l3.6-8.7c0.1-0.2,0.5-0.4,0.9-0.2
			c0.2,0.1,0.4,0.5,0.2,0.7l-3.6,8.6l8,45.4C379.3,288.2,379.1,288.6,378.7,288.6L378.7,288.6L378.7,288.6z"/>
		<path class="st2" d="M432.5,262.3c-0.2,0-0.5-0.1-0.6-0.5L418.6,221l-15,25.6c-0.1,0.2-0.6,0.4-0.9,0.2c-0.2-0.1-0.4-0.5-0.2-0.9
			l15.8-26.7c0.1-0.2,0.4-0.4,0.6-0.2c0.2,0,0.5,0.2,0.5,0.4l13.8,42.2c0.1,0.4,0,0.6-0.4,0.7l0,0L432.5,262.3z"/>
		<path class="st2" d="M439.1,267.3c-0.2,0-0.5-0.1-0.6-0.4l-15.3-46.7h-4.6c-0.4,0-0.6-0.2-0.6-0.6s0.2-0.6,0.6-0.6h5
			c0.2,0,0.5,0.1,0.6,0.5l15.4,47c0.1,0.4,0,0.6-0.4,0.7l0,0L439.1,267.3z"/>
		<path class="st2" d="M414.3,281.1c-0.1,0-0.2,0-0.4-0.1c-0.2-0.1-0.4-0.5-0.2-0.9l12.3-21.4c0.1-0.2,0.5-0.4,0.9-0.2
			c0.2,0.1,0.4,0.5,0.2,0.9l-12.3,21.4C414.6,280.8,414.4,280.9,414.3,281.1z"/>
		<path class="st2" d="M412.2,271.7c-0.1,0-0.2,0-0.4-0.1c-0.2-0.1-0.4-0.5-0.2-0.9l12.4-21.4c0.1-0.4,0.5-0.5,0.9-0.2
			s0.5,0.5,0.2,0.9c0,0,0,0.1-0.1,0.1l-12.3,21.4C412.7,271.6,412.4,271.7,412.2,271.7z"/>
		<path class="st2" d="M410.1,262.5c-0.1,0-0.2,0-0.4-0.1c-0.2-0.1-0.4-0.5-0.2-0.9l0,0l12.3-21.4c0.2-0.2,0.6-0.4,0.9-0.1
			c0.2,0.1,0.4,0.5,0.2,0.7l-12.3,21.4C410.6,262.3,410.3,262.5,410.1,262.5z"/>
		<path class="st2" d="M408,253.1c-0.1,0-0.2,0-0.4-0.1c-0.2-0.1-0.4-0.5-0.2-0.9l0,0l12.3-21.4c0.1-0.2,0.5-0.4,0.9-0.2
			c0.2,0.1,0.4,0.5,0.2,0.9l0,0l-12.3,21.4C408.4,253,408.2,253.1,408,253.1z"/>
		<path class="st2" d="M408.1,281.1c-0.1,0-0.1,0-0.2,0l-20.4-9.1c-0.2-0.1-0.5-0.5-0.4-0.7l0,0c0.1-0.4,0.5-0.5,0.9-0.4l0,0
			l20.4,9.1c0.4,0.1,0.6,0.4,0.5,0.7C408.7,281.1,408.4,281.2,408.1,281.1L408.1,281.1z"/>
		<path class="st2" d="M407.1,272.2c-0.1,0-0.1,0-0.2,0l-20.4-9.1c-0.4-0.1-0.5-0.5-0.4-0.7s0.5-0.5,0.7-0.4c0,0,0,0,0.1,0l20.4,9.1
			c0.4,0.1,0.6,0.4,0.5,0.7C407.7,272.2,407.5,272.3,407.1,272.2L407.1,272.2L407.1,272.2z"/>
		<path class="st2" d="M403.4,263.1c-0.1,0-0.1,0-0.2,0l-20.4-9.1c-0.2-0.1-0.5-0.5-0.4-0.7l0,0c0.1-0.4,0.5-0.5,0.9-0.4l0,0
			l20.4,9.1c0.4,0.1,0.5,0.5,0.4,0.9l0,0C403.9,263,403.7,263.1,403.4,263.1z"/>
		<path class="st2" d="M402,253.7c-0.1,0-0.1,0-0.2,0l-20.4-9.1c-0.4-0.1-0.5-0.5-0.4-0.7s0.5-0.5,0.7-0.4h0.1l20.4,9.1
			c0.4,0.1,0.5,0.5,0.4,0.9l0,0C402.5,253.6,402.2,253.7,402,253.7z"/>
	</g>
	<g id="freepik--Plants--inject-3">
		<path class="st3" d="M347.2,318.6c-3.4,8.5-7,1.7-6.4-34.1c0.2-16.7,1.5-51,20-43.5c17.9,7.3-5.7,57.9-5.7,57.9L347.2,318.6z
			 M372.6,323.7c0,0,38.7-40.3,24.1-53c-15.1-13.2-27.3,18.8-33,34.6c-12.2,33.6-11,41.3-4.9,34.4L372.6,323.7z M380.8,359.8
			c0,0,35.3-25.2,26.1-36.9c-9.6-12.2-23.6,10.5-30.3,21.7c-14.2,24-14.4,29.9-8.7,25.5L380.8,359.8z M390.4,395.8
			c0,0,35.3-25.2,26.1-36.9c-9.6-12.2-23.6,10.5-30.3,21.7c-14.2,24-14.4,29.9-8.7,25.5L390.4,395.8z M328.6,323.4
			c0,0-49.5-25.7-57.5-8.4c-8.4,18.2,25.7,20.9,42.5,21.9c35.7,2.2,42.7-1,34.4-4.9L328.6,323.4z M335.6,351.7c0,0-53.6-15.4-58,3.3
			c-4.6,19.5,29.4,15.4,46.1,13.1c35.5-4.9,41.6-9.5,32.6-11.6L335.6,351.7z M347.9,382.7c0,0-45.7-11.8-49,4.2
			c-3.4,16.6,25.2,12.3,39.2,10c29.8-4.9,35-9,27.3-10.6L347.9,382.7z M355,408.1c0,0-44.2-16.6-49.1-1.1
			c-5.2,16.1,23.8,14.9,37.9,14c30.2-1.8,35.7-5.2,28.3-7.6L355,408.1z M325.5,278.8c0,0-20.2-62.7-43.1-51.4
			c-23.9,11.8,3.7,40.1,17.5,53.7c29.4,28.9,38.5,30.9,34.6,20.8L325.5,278.8z"/>
		<path class="st4" d="M347.2,318.6c-3.4,8.5-7,1.7-6.4-34.1c0.2-16.7,1.5-51,20-43.5c17.9,7.3-5.7,57.9-5.7,57.9L347.2,318.6z
			 M372.6,323.7c0,0,38.7-40.3,24.1-53c-15.1-13.2-27.3,18.8-33,34.6c-12.2,33.6-11,41.3-4.9,34.4L372.6,323.7z M380.8,359.8
			c0,0,35.3-25.2,26.1-36.9c-9.6-12.2-23.6,10.5-30.3,21.7c-14.2,24-14.4,29.9-8.7,25.5L380.8,359.8z M390.4,395.8
			c0,0,35.3-25.2,26.1-36.9c-9.6-12.2-23.6,10.5-30.3,21.7c-14.2,24-14.4,29.9-8.7,25.5L390.4,395.8z M328.6,323.4
			c0,0-49.5-25.7-57.5-8.4c-8.4,18.2,25.7,20.9,42.5,21.9c35.7,2.2,42.7-1,34.4-4.9L328.6,323.4z M335.6,351.7c0,0-53.6-15.4-58,3.3
			c-4.6,19.5,29.4,15.4,46.1,13.1c35.5-4.9,41.6-9.5,32.6-11.6L335.6,351.7z M347.9,382.7c0,0-45.7-11.8-49,4.2
			c-3.4,16.6,25.2,12.3,39.2,10c29.8-4.9,35-9,27.3-10.6L347.9,382.7z M355,408.1c0,0-44.2-16.6-49.1-1.1
			c-5.2,16.1,23.8,14.9,37.9,14c30.2-1.8,35.7-5.2,28.3-7.6L355,408.1z M325.5,278.8c0,0-20.2-62.7-43.1-51.4
			c-23.9,11.8,3.7,40.1,17.5,53.7c29.4,28.9,38.5,30.9,34.6,20.8L325.5,278.8z"/>
		<path class="st5" d="M380,452.2c-0.4,0-0.7-0.4-0.7-0.7c-1.8-32.8-11.1-72.3-25.2-108.5c-11.9-30.5-62.2-92-62.7-92.6
			c-0.2-0.4-0.2-0.9,0.1-1.1c0.4-0.2,0.9-0.2,1.1,0.1l0,0c0.5,0.6,50.9,62.3,62.9,93c14.2,36.5,23.4,76.1,25.2,109.1
			C380.8,451.9,380.5,452.2,380,452.2L380,452.2z"/>
		<path class="st5" d="M344.6,323.3L344.6,323.3c-0.5,0-0.9-0.5-0.7-0.9l7-59c0-0.4,0.5-0.7,0.9-0.6c0.4,0,0.7,0.5,0.6,0.9l0,0
			l-7,59C345.3,323.1,344.9,323.3,344.6,323.3z"/>
		<path class="st5" d="M354.7,343.5c-0.1,0-0.2,0-0.4-0.1c-0.4-0.2-0.5-0.6-0.4-1l0,0l25.5-49.5c0.1-0.4,0.6-0.6,1-0.5
			s0.6,0.6,0.5,1c0,0,0,0.1-0.1,0.1l-25.4,49.6C355.2,343.4,354.9,343.5,354.7,343.5z"/>
		<path class="st5" d="M351,336.1h-0.1l-53.4-10.8c-0.4,0-0.7-0.5-0.7-0.9s0.5-0.7,0.9-0.7h0.1l53.4,10.8c0.4,0.1,0.6,0.5,0.6,0.9
			C351.6,335.9,351.3,336.1,351,336.1z"/>
		<path class="st5" d="M364.8,371.6c-0.4,0-0.7-0.4-0.7-0.9c0-0.1,0-0.2,0.1-0.4l31.4-35.8c0.2-0.4,0.7-0.4,1.1-0.1
			c0.4,0.2,0.4,0.7,0.1,1.1l0,0l-31.4,35.7C365.1,371.5,365,371.6,364.8,371.6z"/>
		<path class="st5" d="M360.3,359.8L360.3,359.8l-40.3-0.4c-0.4,0-0.7-0.4-0.7-0.7s0.4-0.7,0.7-0.7l40.3,0.4c0.4,0,0.7,0.4,0.7,0.7
			C361.1,359.5,360.8,359.8,360.3,359.8C360.3,359.9,360.3,359.9,360.3,359.8z"/>
		<path class="st5" d="M337.2,390.3c-0.4,0-0.7-0.4-0.7-0.7c0-0.4,0.4-0.7,0.7-0.7l30.9-1.2c0.4,0,0.7,0.4,0.7,0.7s-0.2,0.7-0.7,0.7
			l0,0L337.2,390.3L337.2,390.3z"/>
		<path class="st5" d="M374.5,407.8c-0.1,0-0.4,0-0.5-0.1c-0.4-0.2-0.4-0.7-0.1-1.1l16.5-22c0.2-0.4,0.7-0.4,1.1-0.1
			c0.4,0.2,0.4,0.7,0.1,1.1l0,0l-16.5,22C374.9,407.7,374.6,407.8,374.5,407.8z"/>
		<path class="st5" d="M375.6,415.9L375.6,415.9l-36.2-1.8c-0.4,0-0.7-0.4-0.7-0.9l0,0c0-0.4,0.4-0.7,0.9-0.7l36.2,1.8
			c0.4,0,0.7,0.4,0.7,0.7l0,0C376.5,415.7,376.1,416,375.6,415.9L375.6,415.9z"/>
		<path class="st3" d="M444.7,367.4c-6.3,2.3-4.3-3,14.9-20.2c9-8.1,27.8-24.3,32.9-10.7c4.9,13.1-33.6,25.4-33.6,25.4L444.7,367.4z
			 M454.5,383.4c0,0,40.4,0.7,40-13.2c-0.4-14.5-23.4-5.3-34.6-0.5c-23.9,10.1-27.3,14.4-20.7,14.2L454.5,383.4z M439.3,405.6
			c0,0,30.8,6.4,32.5-4.3c1.8-11.1-17.1-7.4-26.4-5.4c-19.7,4.3-23,7-17.9,7.9L439.3,405.6z M424.7,428.3c0,0,30.8,6.4,32.5-4.3
			c1.8-11.1-17.1-7.4-26.4-5.4c-19.7,4.3-23,7-17.9,7.9L424.7,428.3z M433,359.9c0,0-10.6-38.9-23.9-34.7c-13.8,4.4,1.6,24,9.2,33.4
			c16.4,20.1,21.6,22.2,19.5,15.9L433,359.9z M421.3,377.6c0,0-18.2-36.1-30.3-29.3c-12.6,7.1,6.3,23.2,15.6,30.9
			c20.1,16.4,25.5,17.5,22.3,11.7L421.3,377.6z M410.8,399.3c0,0-16.1-30.2-26.4-24c-10.5,6.3,5.9,19.5,13.9,25.7
			c17.4,13.4,22,14.2,19.1,9.4L410.8,399.3z M400.9,415.7c0,0-12.9-31.6-23.6-26.7c-11.1,5.2,3.7,20,11.2,27.1
			c15.8,15.1,20.3,16.5,18,11.3L400.9,415.7z M455,336.4c0,0,23.4-41.6,6.2-48.2c-18-6.9-19.6,21.7-20,35.7
			c-1,29.8,2.5,35.7,5.9,28.7L455,336.4z"/>
		<path class="st6" d="M444.7,367.4c-6.3,2.3-4.3-3,14.9-20.2c9-8.1,27.8-24.3,32.9-10.7c4.9,13.1-33.6,25.4-33.6,25.4L444.7,367.4z
			 M454.5,383.4c0,0,40.4,0.7,40-13.2c-0.4-14.5-23.4-5.3-34.6-0.5c-23.9,10.1-27.3,14.4-20.7,14.2L454.5,383.4z M439.3,405.6
			c0,0,30.8,6.4,32.5-4.3c1.8-11.1-17.1-7.4-26.4-5.4c-19.7,4.3-23,7-17.9,7.9L439.3,405.6z M424.7,428.3c0,0,30.8,6.4,32.5-4.3
			c1.8-11.1-17.1-7.4-26.4-5.4c-19.7,4.3-23,7-17.9,7.9L424.7,428.3z M433,359.9c0,0-10.6-38.9-23.9-34.7c-13.8,4.4,1.6,24,9.2,33.4
			c16.4,20.1,21.6,22.2,19.5,15.9L433,359.9z M421.3,377.6c0,0-18.2-36.1-30.3-29.3c-12.6,7.1,6.3,23.2,15.6,30.9
			c20.1,16.4,25.5,17.5,22.3,11.7L421.3,377.6z M410.8,399.3c0,0-16.1-30.2-26.4-24c-10.5,6.3,5.9,19.5,13.9,25.7
			c17.4,13.4,22,14.2,19.1,9.4L410.8,399.3z M400.9,415.7c0,0-12.9-31.6-23.6-26.7c-11.1,5.2,3.7,20,11.2,27.1
			c15.8,15.1,20.3,16.5,18,11.3L400.9,415.7z M455,336.4c0,0,23.4-41.6,6.2-48.2c-18-6.9-19.6,21.7-20,35.7
			c-1,29.8,2.5,35.7,5.9,28.7L455,336.4z"/>
		<path class="st5" d="M388.5,452.7c-0.2,0-0.4-0.1-0.5-0.2c-0.2-0.2-0.2-0.7,0-1.1c16.9-17.5,34.9-43.7,46.8-68.5
			c10.3-21.3,18.3-78.2,18.5-78.8c0.1-0.4,0.5-0.7,0.9-0.6s0.7,0.5,0.6,0.9c-0.1,0.6-8.1,57.8-18.6,79.2
			c-12.1,24.9-30.2,51.2-47.2,68.8C388.9,452.6,388.8,452.7,388.5,452.7z"/>
		<path class="st5" d="M441.2,368.7c-0.2,0-0.5-0.1-0.6-0.4c-0.2-0.4-0.1-0.9,0.1-1.1l34.9-25.2c0.2-0.2,0.7-0.4,1.1,0
			s0.4,0.7,0,1.1c0,0-0.1,0.1-0.2,0.1l-34.9,25.2C441.6,368.7,441.5,368.7,441.2,368.7z"/>
		<path class="st5" d="M435.6,384c-0.4,0-0.7-0.4-0.7-0.9c0-0.4,0.2-0.6,0.5-0.7l38.9-10.8c0.4-0.1,0.9,0.1,1,0.5s-0.1,0.9-0.5,1
			l-38.9,10.8C435.7,384,435.6,384,435.6,384z"/>
		<path class="st5" d="M437.5,378.5c-0.2,0-0.5-0.1-0.6-0.4l-20.4-33.7c-0.2-0.4-0.1-0.9,0.2-1.1l0,0c0.4-0.2,0.9-0.1,1.1,0.2
			l20.4,33.7c0.2,0.4,0.1,0.9-0.2,1.1C437.9,378.5,437.7,378.5,437.5,378.5z"/>
		<path class="st5" d="M425.5,403.2c-0.4,0-0.7-0.5-0.6-0.9c0-0.4,0.4-0.6,0.6-0.6l34.5-0.9c0.4,0,0.7,0.4,0.7,0.7
			c0,0.4-0.4,0.7-0.7,0.7L425.5,403.2L425.5,403.2z"/>
		<path class="st5" d="M429.5,395.1c-0.2,0-0.4-0.1-0.6-0.2l-19.6-21.6c-0.2-0.2-0.2-0.7,0-1.1c0.4-0.2,0.9-0.2,1.1,0l0,0l19.6,21.6
			c0.2,0.4,0.1,0.9-0.1,1.1C429.8,395,429.7,395,429.5,395.1L429.5,395.1z"/>
		<path class="st5" d="M417.8,413.6c-0.2,0-0.4-0.1-0.5-0.2l-15.9-15.9c-0.2-0.4-0.2-0.9,0-1.1s0.7-0.2,1,0l15.9,15.9
			c0.2,0.2,0.2,0.7,0,1.1C418.2,413.6,418.1,413.6,417.8,413.6z"/>
		<path class="st5" d="M411.1,426.1c-0.4,0-0.7-0.4-0.7-0.9c0-0.4,0.2-0.6,0.6-0.7l19.8-2.1c0.4,0,0.7,0.4,0.7,0.7
			c0,0.4-0.2,0.7-0.6,0.7L411.1,426.1L411.1,426.1z"/>
		<path class="st5" d="M407.3,430.8c-0.2,0-0.5-0.1-0.6-0.2l-16.9-20.1c-0.2-0.4-0.2-0.9,0.1-1.1c0.4-0.2,0.9-0.2,1.1,0.1l0,0
			l16.9,20.1c0.2,0.4,0.2,0.9-0.1,1.1C407.6,430.8,407.5,430.8,407.3,430.8z"/>
		<path class="st3" d="M147.4,318.6c3.4,8.5,7,1.7,6.4-34.1c-0.2-16.7-1.5-51-20-43.5c-17.7,7.3,5.7,57.9,5.7,57.9L147.4,318.6z
			 M121.9,323.7c0,0-38.7-40.3-24.1-53c15.1-13.2,27.3,18.8,33,34.6c12.2,33.6,11,41.3,4.9,34.4L121.9,323.7z M113.8,359.8
			c0,0-35.3-25.2-26.1-36.9c9.6-12.2,23.6,10.5,30.3,21.7c14.2,24,14.4,29.9,8.7,25.5L113.8,359.8z M104.2,395.8
			c0,0-35.3-25.2-26.1-36.9c9.6-12.2,23.6,10.5,30.3,21.7c14.2,24,14.4,29.9,8.7,25.5L104.2,395.8z M166,323.4
			c0,0,49.5-25.7,57.5-8.4c8.4,18.2-25.7,20.9-42.5,21.9c-35.7,2.2-42.7-1-34.4-4.9L166,323.4z M159,351.7c0,0,53.7-15.4,58,3.3
			c4.6,19.5-29.4,15.4-46.1,13.1c-35.5-4.9-41.6-9.5-32.6-11.6L159,351.7z M146.7,382.7c0,0,45.7-11.8,49,4.2
			c3.4,16.6-25.2,12.3-39.2,10c-29.8-4.9-35-9-27.3-10.6L146.7,382.7z M139.5,408.1c0,0,44.2-16.5,49.3-1
			c5.2,16.1-23.8,14.9-37.9,14c-30.2-1.8-35.7-5.2-28.3-7.6L139.5,408.1z M169.1,278.8c0,0,20.2-62.7,43.1-51.4
			c23.9,11.8-3.7,40.1-17.5,53.7c-29.4,28.9-38.5,30.9-34.6,20.8L169.1,278.8z"/>
		<path class="st4" d="M147.4,318.6c3.4,8.5,7,1.7,6.4-34.1c-0.2-16.7-1.5-51-20-43.5c-17.7,7.3,5.7,57.9,5.7,57.9L147.4,318.6z
			 M121.9,323.7c0,0-38.7-40.3-24.1-53c15.1-13.2,27.3,18.8,33,34.6c12.2,33.6,11,41.3,4.9,34.4L121.9,323.7z M113.8,359.8
			c0,0-35.3-25.2-26.1-36.9c9.6-12.2,23.6,10.5,30.3,21.7c14.2,24,14.4,29.9,8.7,25.5L113.8,359.8z M104.2,395.8
			c0,0-35.3-25.2-26.1-36.9c9.6-12.2,23.6,10.5,30.3,21.7c14.2,24,14.4,29.9,8.7,25.5L104.2,395.8z M166,323.4
			c0,0,49.5-25.7,57.5-8.4c8.4,18.2-25.7,20.9-42.5,21.9c-35.7,2.2-42.7-1-34.4-4.9L166,323.4z M159,351.7c0,0,53.7-15.4,58,3.3
			c4.6,19.5-29.4,15.4-46.1,13.1c-35.5-4.9-41.6-9.5-32.6-11.6L159,351.7z M146.7,382.7c0,0,45.7-11.8,49,4.2
			c3.4,16.6-25.2,12.3-39.2,10c-29.8-4.9-35-9-27.3-10.6L146.7,382.7z M139.5,408.1c0,0,44.2-16.5,49.3-1
			c5.2,16.1-23.8,14.9-37.9,14c-30.2-1.8-35.7-5.2-28.3-7.6L139.5,408.1z M169.1,278.8c0,0,20.2-62.7,43.1-51.4
			c23.9,11.8-3.7,40.1-17.5,53.7c-29.4,28.9-38.5,30.9-34.6,20.8L169.1,278.8z"/>
		<path class="st5" d="M114.7,452.2L114.7,452.2c-0.4,0-0.7-0.4-0.7-0.9c1.8-32.9,11.1-72.7,25.4-109c12.1-30.7,62.4-92.4,62.9-93
			c0.2-0.4,0.7-0.4,1.1-0.1l0,0c0.4,0.2,0.4,0.7,0.1,1.1c-0.5,0.6-50.7,62.1-62.7,92.6c-14.2,36.2-23.4,75.7-25.2,108.5
			C115.4,452,115,452.2,114.7,452.2z"/>
		<path class="st5" d="M150,323.3c-0.4,0-0.7-0.2-0.7-0.6l-7-59c0-0.4,0.2-0.9,0.6-0.9s0.9,0.2,0.9,0.6l7,59
			C150.7,322.8,150.5,323.2,150,323.3L150,323.3z"/>
		<path class="st5" d="M139.9,343.5c-0.2,0-0.5-0.1-0.7-0.4l-25.5-49.5c-0.2-0.4,0-0.9,0.4-1l0,0c0.4-0.1,0.9,0,1.1,0.4l25.5,49.5
			c0.2,0.4,0,0.9-0.4,1l0,0C140.1,343.5,140,343.5,139.9,343.5z"/>
		<path class="st5" d="M143.6,336.1c-0.4,0-0.7-0.2-0.7-0.6c-0.1-0.4,0.2-0.9,0.6-0.9l53.4-10.8c0.4-0.1,0.9,0.1,1,0.5
			s-0.1,0.9-0.5,1h-0.1l-53.4,10.8H143.6z"/>
		<path class="st5" d="M129.8,371.6c-0.2,0-0.4-0.1-0.6-0.2l-31.4-35.7c-0.2-0.4-0.2-0.9,0.1-1.1s0.9-0.2,1.1,0.1l0,0l31.4,35.7
			c0.2,0.4,0.1,0.9-0.1,1.1C130.2,371.5,130,371.5,129.8,371.6L129.8,371.6z"/>
		<path class="st5" d="M134.2,359.8c-0.4,0-0.7-0.4-0.7-0.7l0,0c0-0.4,0.4-0.7,0.7-0.7l40.3-0.4l0,0c0.4,0,0.7,0.4,0.7,0.7l0,0
			c0,0.4-0.4,0.7-0.7,0.7L134.2,359.8z"/>
		<path class="st5" d="M157.4,390.3L157.4,390.3l-30.9-1.2c-0.4-0.1-0.7-0.5-0.6-0.9c0-0.4,0.4-0.6,0.7-0.6l30.9,1.2
			c0.4,0,0.7,0.4,0.7,0.7C158.1,390,157.8,390.3,157.4,390.3z"/>
		<path class="st5" d="M120.2,407.8c-0.2,0-0.5-0.1-0.6-0.4l-16.5-22c-0.2-0.4-0.2-0.9,0.1-1.1l0,0c0.4-0.2,0.9-0.1,1.1,0.1l16.5,22
			c0.2,0.4,0.1,0.9-0.1,1.1C120.4,407.7,120.3,407.8,120.2,407.8z"/>
		<path class="st5" d="M119,415.9c-0.4,0-0.7-0.4-0.7-0.7c0-0.4,0.2-0.7,0.7-0.7l0,0l36.2-1.8c0.4,0,0.7,0.2,0.9,0.7l0,0
			c0,0.4-0.4,0.7-0.7,0.9l0,0L119,415.9L119,415.9z"/>
		<path class="st3" d="M49.9,367.4c6.3,2.3,4.3-3-15-20.2c-9-8.1-27.8-24.3-32.9-10.7c-4.9,13.1,33.6,25.4,33.6,25.4L49.9,367.4z
			 M40,383.4c0,0-40.4,0.7-40-13.2c0.4-14.5,23.4-5.3,34.6-0.5c23.9,10.1,27.3,14.4,20.7,14.2L40,383.4z M55.3,405.6
			c0,0-30.8,6.4-32.5-4.3c-1.7-11.1,17.1-7.4,26.4-5.4c19.7,4.3,23,7,17.9,7.9L55.3,405.6z M69.8,428.3c0,0-30.8,6.4-32.5-4.3
			c-1.7-11.1,17.1-7.4,26.4-5.4c19.7,4.3,23,7,17.9,7.9L69.8,428.3z M61.6,359.9c0,0,10.6-39,23.9-34.7c13.8,4.4-1.6,24-9.2,33.4
			c-16.4,20.1-21.6,22.2-19.5,15.9L61.6,359.9z M73.3,377.6c0,0,18.2-36.1,30.3-29.3c12.7,7.1-6.3,23.2-15.6,30.9
			c-20.1,16.4-25.5,17.5-22.3,11.7L73.3,377.6z M83.7,399.3c0,0,16.1-30.2,26.4-24c10.5,6.3-5.9,19.5-13.9,25.7
			c-17.4,13.4-21.9,14.2-19.1,9.4L83.7,399.3z M93.7,415.7c0,0,12.9-31.6,23.6-26.7c11.1,5.2-3.8,20-11.2,27.1
			c-15.8,15.1-20.3,16.5-18,11.3L93.7,415.7z M39.5,336.4c0,0-23.4-41.6-6.2-48.2c18-6.9,19.6,21.7,20,35.7
			c0.9,29.8-2.5,35.7-5.9,28.7L39.5,336.4z"/>
		<path class="st6" d="M49.9,367.4c6.3,2.3,4.3-3-15-20.2c-9-8.1-27.8-24.3-32.9-10.7c-4.9,13.1,33.6,25.4,33.6,25.4L49.9,367.4z
			 M40,383.4c0,0-40.4,0.7-40-13.2c0.4-14.5,23.4-5.3,34.6-0.5c23.9,10.1,27.3,14.4,20.7,14.2L40,383.4z M55.3,405.6
			c0,0-30.8,6.4-32.5-4.3c-1.7-11.1,17.1-7.4,26.4-5.4c19.7,4.3,23,7,17.9,7.9L55.3,405.6z M69.8,428.3c0,0-30.8,6.4-32.5-4.3
			c-1.7-11.1,17.1-7.4,26.4-5.4c19.7,4.3,23,7,17.9,7.9L69.8,428.3z M61.6,359.9c0,0,10.6-39,23.9-34.7c13.8,4.4-1.6,24-9.2,33.4
			c-16.4,20.1-21.6,22.2-19.5,15.9L61.6,359.9z M73.3,377.6c0,0,18.2-36.1,30.3-29.3c12.7,7.1-6.3,23.2-15.6,30.9
			c-20.1,16.4-25.5,17.5-22.3,11.7L73.3,377.6z M83.7,399.3c0,0,16.1-30.2,26.4-24c10.5,6.3-5.9,19.5-13.9,25.7
			c-17.4,13.4-21.9,14.2-19.1,9.4L83.7,399.3z M93.7,415.7c0,0,12.9-31.6,23.6-26.7c11.1,5.2-3.8,20-11.2,27.1
			c-15.8,15.1-20.3,16.5-18,11.3L93.7,415.7z M39.5,336.4c0,0-23.4-41.6-6.2-48.2c18-6.9,19.6,21.7,20,35.7
			c0.9,29.8-2.5,35.7-5.9,28.7L39.5,336.4z"/>
		<path class="st5" d="M106,452.7c-0.2,0-0.4-0.1-0.5-0.2c-17-17.6-35.1-44-47.2-68.8c-10.5-21.6-18.5-78.7-18.6-79.2
			c0-0.4,0.2-0.9,0.6-0.9c0.4,0,0.9,0.2,0.9,0.6c0.1,0.6,8.1,57.5,18.3,78.8c11.9,24.8,29.9,51,46.8,68.5c0.2,0.2,0.2,0.7,0,1.1
			C106.4,452.7,106.3,452.7,106,452.7z"/>
		<path class="st5" d="M53.3,368.7c-0.1,0-0.4,0-0.5-0.1L18,343.4c-0.4-0.2-0.5-0.6-0.4-1s0.6-0.5,1-0.4c0.1,0,0.1,0.1,0.2,0.1
			l34.9,25.2c0.4,0.2,0.4,0.7,0.1,1.1C53.7,368.6,53.6,368.7,53.3,368.7z"/>
		<path class="st5" d="M59.1,384c-0.1,0-0.1,0-0.2,0L20,373.2c-0.4-0.1-0.6-0.5-0.5-1c0.1-0.4,0.5-0.6,1-0.5l38.9,10.8
			c0.4,0.1,0.6,0.6,0.5,1C59.7,383.8,59.4,384,59.1,384z"/>
		<path class="st5" d="M57,378.5c-0.1,0-0.2,0-0.4-0.1c-0.4-0.2-0.5-0.7-0.2-1.1l20.4-33.7c0.1-0.4,0.6-0.6,1-0.4
			c0.4,0.1,0.6,0.6,0.4,1c0,0,0,0.1-0.1,0.1L57.6,378C57.5,378.3,57.3,378.5,57,378.5z"/>
		<path class="st5" d="M69.1,403.2L69.1,403.2l-34.5-0.9c-0.4,0-0.7-0.4-0.7-0.7s0.4-0.7,0.9-0.7l34.5,0.9c0.4,0,0.7,0.4,0.7,0.7
			l0,0C69.8,402.9,69.5,403.2,69.1,403.2L69.1,403.2z"/>
		<path class="st5" d="M65,395.1c-0.4,0-0.7-0.4-0.7-0.7c0-0.1,0.1-0.4,0.1-0.5L84,372.2c0.2-0.4,0.7-0.4,1.1-0.1l0,0
			c0.2,0.2,0.2,0.7,0,1.1l-19.6,21.7C65.4,395,65.1,395.1,65,395.1z"/>
		<path class="st5" d="M76.7,413.6c-0.4,0-0.7-0.4-0.7-0.7c0-0.2,0.1-0.4,0.2-0.5l15.9-15.9c0.4-0.2,0.9-0.2,1.1,0s0.2,0.7,0,1
			l-16,15.9C77.1,413.4,77,413.6,76.7,413.6z"/>
		<path class="st5" d="M83.5,426.1L83.5,426.1l-20-2.1c-0.4-0.1-0.7-0.5-0.6-0.9c0.1-0.4,0.4-0.6,0.7-0.6l19.8,2.1
			c0.4,0.1,0.7,0.5,0.6,0.9C84.2,425.9,83.9,426.1,83.5,426.1z"/>
		<path class="st5" d="M87.3,430.8c-0.1,0-0.4-0.1-0.5-0.1c-0.4-0.2-0.4-0.7-0.1-1.1l16.9-20.1c0.2-0.4,0.7-0.4,1.1-0.1l0,0
			c0.4,0.2,0.4,0.7,0.1,1.1l-16.9,20.1C87.8,430.7,87.6,430.8,87.3,430.8z"/>
	</g>
	<g id="freepik--Character--inject-3">
		<rect x="164.8" y="314.4" class="st7" width="130.2" height="26.6"/>
		<path class="st2" d="M295.1,341.6H164.8c-0.4,0-0.6-0.2-0.6-0.6v-26.6c0-0.4,0.2-0.6,0.6-0.6H295c0.4,0,0.6,0.2,0.6,0.6V341
			C295.7,341.4,295.3,341.6,295.1,341.6z M165.4,340.4h128.9V315H165.4V340.4z"/>
		<path class="st2" d="M189,321.9h-22.9c-0.4,0-0.6-0.2-0.6-0.6s0.2-0.6,0.6-0.6H189c0.4,0,0.6,0.2,0.6,0.6
			C189.7,321.7,189.4,321.9,189,321.9z"/>
		<path class="st2" d="M199.7,329.2h-3.1c-0.4,0-0.6-0.2-0.6-0.6s0.2-0.6,0.6-0.6h3.1c0.4,0,0.6,0.2,0.6,0.6
			C200.4,329,200.1,329.2,199.7,329.2z"/>
		<path class="st2" d="M191.5,329.2h-25.6c-0.4,0-0.6-0.2-0.6-0.6s0.2-0.6,0.6-0.6h25.6c0.4,0,0.6,0.2,0.6,0.6
			S191.7,329.2,191.5,329.2z"/>
		<path class="st2" d="M177,336.7h-10.6c-0.4,0-0.6-0.2-0.6-0.6s0.2-0.6,0.6-0.6H177c0.4,0,0.6,0.2,0.6,0.6S177.2,336.7,177,336.7z"
			/>
		<path class="st7" d="M268.3,315.3c-2.2,8.3-2.2,16.9,0,25.1h52.5c0,0-5.5-15.9,0-25.1H268.3z"/>
		<path class="st2" d="M320.8,341h-52.5c-0.2,0-0.5-0.1-0.6-0.5c-2.2-8.4-2.2-17.1,0-25.5c0.1-0.2,0.4-0.5,0.6-0.5h52.5
			c0.4,0,0.6,0.2,0.6,0.6c0,0.1,0,0.2-0.1,0.2c-5.3,8.9,0,24.5,0,24.6c0.1,0.4-0.1,0.6-0.4,0.7C320.8,341.2,320.8,341.2,320.8,341
			L320.8,341z M268.7,339.8h51.1c-1-3.3-4.3-15.6-0.2-23.9h-50.9C266.7,323.8,266.7,332,268.7,339.8z"/>
		<g>
			<g>
				<g>
					<defs>
						<path id="SVGID_1_" d="M268.3,315.3c-2.2,8.3-2.2,16.9,0,25.1h52.5c0,0-5.5-15.9,0-25.1H268.3z"/>
					</defs>
					<clipPath id="SVGID_2_">
						<use xlink:href="#SVGID_1_"  style="overflow:visible;"/>
					</clipPath>
				</g>
				<g>
					<defs>
						<path id="SVGID_3_" d="M268.3,315.3c-2.2,8.3-2.2,16.9,0,25.1h52.5c0,0-5.5-15.9,0-25.1H268.3z"/>
					</defs>
					<defs>
						<path id="SVGID_4_" d="M320.8,341h-52.5c-0.2,0-0.5-0.1-0.6-0.5c-2.2-8.4-2.2-17.1,0-25.5c0.1-0.2,0.4-0.5,0.6-0.5h52.5
							c0.4,0,0.6,0.2,0.6,0.6c0,0.1,0,0.2-0.1,0.2c-5.3,8.9,0,24.5,0,24.6c0.1,0.4-0.1,0.6-0.4,0.7
							C320.8,341.2,320.8,341.2,320.8,341L320.8,341z M268.7,339.8h51.1c-1-3.3-4.3-15.6-0.2-23.9h-50.9
							C266.7,323.8,266.7,332,268.7,339.8z"/>
					</defs>
					<clipPath id="SVGID_5_">
						<use xlink:href="#SVGID_3_"  style="overflow:visible;"/>
					</clipPath>
					<clipPath id="SVGID_6_" class="st8">
						<use xlink:href="#SVGID_4_"  style="overflow:visible;"/>
					</clipPath>
					<g class="st9">
						<g class="st10">
							<path class="st2" d="M268.3,315.3c-2.2,8.3-2.2,16.9,0,25.1h52.5c0,0-5.5-15.9,0-25.1H268.3z"/>
							<path class="st2" d="M320.8,341h-52.5c-0.2,0-0.5-0.1-0.6-0.5c-2.2-8.4-2.2-17.1,0-25.5c0.1-0.2,0.4-0.5,0.6-0.5h52.5
								c0.4,0,0.6,0.2,0.6,0.6c0,0.1,0,0.2-0.1,0.2c-5.3,8.9,0,24.5,0,24.6c0.1,0.4-0.1,0.6-0.4,0.7
								C320.8,341.2,320.8,341.2,320.8,341L320.8,341z M268.7,339.8h51.1c-1-3.3-4.3-15.6-0.2-23.9h-50.9
								C266.7,323.8,266.7,332,268.7,339.8z"/>
						</g>
					</g>
				</g>
			</g>
		</g>
		<path class="st2" d="M166.4,336.1v-18.2c0-1,0.7-1.7,1.7-1.7h154.8c0.7,0,1.2-0.5,1.2-1.2l0,0c0-0.7-0.5-1.2-1.2-1.2h-159
			c-1,0-1.7,0.7-1.7,1.7v23.2c0,1.5,1.2,2.7,2.7,2.7l0,0h158c0.7,0,1.2-0.5,1.2-1.2l0,0c0-0.7-0.5-1.2-1.2-1.2H169.1
			C167.6,338.9,166.4,337.7,166.4,336.1C166.4,336.2,166.4,336.2,166.4,336.1z"/>
		<path class="st2" d="M322.9,342h-158c-1.8,0-3.3-1.5-3.3-3.3v-23.3c0-1.2,1-2.3,2.3-2.3h159c1-0.1,2,0.7,2.1,1.7s-0.7,2-1.7,2.1
			c-0.1,0-0.2,0-0.2,0h-155c-0.6,0-1.1,0.5-1.1,1.1v18.2c0,1.1,1,2.1,2.1,2.1h153.8c1-0.1,2,0.7,2.1,1.7s-0.7,2-1.7,2.1
			C323.1,342,323,342,322.9,342z M163.9,314.3c-0.6,0-1.1,0.5-1.1,1.1v23.3c0,1.1,1,2.1,2.1,2.1h158c0.4,0,0.7-0.2,0.7-0.6
			s-0.2-0.7-0.6-0.7h-0.1H169.1c-1.8,0-3.3-1.5-3.3-3.3l0,0V318c0-1.2,1-2.3,2.3-2.3h154.8c0.4,0,0.7-0.2,0.7-0.6s-0.2-0.7-0.6-0.7
			h-0.1L163.9,314.3L163.9,314.3L163.9,314.3z"/>
		<rect x="164.8" y="369.5" class="st7" width="130.2" height="26.6"/>
		<path class="st2" d="M295.1,396.7H164.8c-0.4,0-0.6-0.2-0.6-0.6v-26.6c0-0.4,0.2-0.6,0.6-0.6H295c0.4,0,0.6,0.2,0.6,0.6v26.6
			C295.7,396.4,295.3,396.7,295.1,396.7z M165.4,395.5h128.9v-25.4H165.4V395.5z"/>
		<path class="st2" d="M189.9,375.1H167c-0.4,0-0.6-0.2-0.6-0.6s0.2-0.6,0.6-0.6h22.9c0.4,0,0.6,0.2,0.6,0.6
			S190.3,375.1,189.9,375.1z"/>
		<path class="st2" d="M200.6,382.4h-3.1c-0.4,0-0.6-0.2-0.6-0.6s0.2-0.6,0.6-0.6h3.1c0.4,0,0.6,0.2,0.6,0.6
			C201.2,382.2,201,382.4,200.6,382.4z"/>
		<path class="st2" d="M192.2,382.4h-25.6c-0.4,0-0.6-0.2-0.6-0.6s0.2-0.6,0.6-0.6h25.6c0.4,0,0.6,0.2,0.6,0.6
			C192.9,382.2,192.6,382.4,192.2,382.4z"/>
		<path class="st2" d="M177.7,389.9h-10.6c-0.4,0-0.6-0.2-0.6-0.6s0.2-0.6,0.6-0.6h10.6c0.4,0,0.6,0.2,0.6,0.6
			C178.3,389.7,178.1,389.9,177.7,389.9z"/>
		<path class="st7" d="M269.1,370.3c-2.2,8.3-2.2,16.9,0,25.1h51.6c0,0-5.5-15.9,0-25.1H269.1z"/>
		<path class="st2" d="M320.8,396.1h-51.6c-0.2,0-0.5-0.2-0.6-0.5c-2.2-8.4-2.2-17.1,0-25.5c0.1-0.2,0.4-0.4,0.6-0.4h51.6
			c0.2,0,0.4,0.1,0.5,0.4c0.1,0.2,0.1,0.5,0,0.6c-5.3,8.9,0,24.4,0,24.6c0.1,0.2,0,0.4-0.1,0.6C321.1,396,320.9,396.1,320.8,396.1z
			 M269.6,394.8H320c-1-3.3-4.3-15.6-0.2-23.9h-50.1C267.6,378.8,267.6,387,269.6,394.8z"/>
		<g>
			<g>
				<g>
					<defs>
						<path id="SVGID_7_" d="M269.1,370.3c-2.2,8.3-2.2,16.9,0,25.1h51.6c0,0-5.5-15.9,0-25.1H269.1z"/>
					</defs>
					<clipPath id="SVGID_8_">
						<use xlink:href="#SVGID_7_"  style="overflow:visible;"/>
					</clipPath>
				</g>
				<g>
					<defs>
						<path id="SVGID_9_" d="M269.1,370.3c-2.2,8.3-2.2,16.9,0,25.1h51.6c0,0-5.5-15.9,0-25.1H269.1z"/>
					</defs>
					<defs>
						<path id="SVGID_10_" d="M320.8,396.1h-51.6c-0.2,0-0.5-0.2-0.6-0.5c-2.2-8.4-2.2-17.1,0-25.5c0.1-0.2,0.4-0.4,0.6-0.4h51.6
							c0.2,0,0.4,0.1,0.5,0.4c0.1,0.2,0.1,0.5,0,0.6c-5.3,8.9,0,24.4,0,24.6c0.1,0.2,0,0.4-0.1,0.6
							C321.1,396,320.9,396.1,320.8,396.1z M269.6,394.8H320c-1-3.3-4.3-15.6-0.2-23.9h-50.1C267.6,378.8,267.6,387,269.6,394.8z"/>
					</defs>
					<clipPath id="SVGID_11_">
						<use xlink:href="#SVGID_9_"  style="overflow:visible;"/>
					</clipPath>
					<clipPath id="SVGID_12_" class="st11">
						<use xlink:href="#SVGID_10_"  style="overflow:visible;"/>
					</clipPath>
					<g class="st12">
						<g class="st10">
							<path class="st2" d="M269.1,370.3c-2.2,8.3-2.2,16.9,0,25.1h51.6c0,0-5.5-15.9,0-25.1H269.1z"/>
							<path class="st2" d="M320.8,396.1h-51.6c-0.2,0-0.5-0.2-0.6-0.5c-2.2-8.4-2.2-17.1,0-25.5c0.1-0.2,0.4-0.4,0.6-0.4h51.6
								c0.2,0,0.4,0.1,0.5,0.4c0.1,0.2,0.1,0.5,0,0.6c-5.3,8.9,0,24.4,0,24.6c0.1,0.2,0,0.4-0.1,0.6
								C321.1,396,320.9,396.1,320.8,396.1z M269.6,394.8H320c-1-3.3-4.3-15.6-0.2-23.9h-50.1C267.6,378.8,267.6,387,269.6,394.8z"
								/>
						</g>
					</g>
				</g>
			</g>
		</g>
		<path class="st2" d="M166.4,391.2V373c0-1,0.7-1.7,1.7-1.7h154.8c0.7,0,1.2-0.5,1.2-1.2l0,0c0-0.7-0.5-1.2-1.2-1.2h-159
			c-1,0-1.7,0.7-1.7,1.7v23.3c0,1.5,1.2,2.7,2.7,2.7h158c0.7,0,1.2-0.5,1.2-1.2l0,0c0-0.7-0.5-1.2-1.2-1.2H169.1
			c-1.5,0-2.7-1.2-2.7-2.7C166.4,391.3,166.4,391.2,166.4,391.2z"/>
		<path class="st2" d="M322.9,397.1h-158c-1.8,0-3.3-1.5-3.3-3.3v-23.3c0-1.2,1-2.3,2.3-2.3h159c1-0.1,2,0.7,2.1,1.7s-0.7,2-1.7,2.1
			c-0.1,0-0.2,0-0.2,0h-155c-0.6,0-1.1,0.5-1.1,1.1v18.1c0,1.1,1,2.1,2.1,2.1h153.8c1-0.1,2,0.7,2.1,1.7s-0.7,2-1.7,2.1
			C323.1,397.1,323,397.1,322.9,397.1z M163.9,369.4c-0.6,0-1.1,0.5-1.1,1.1v23.3c0,1.1,1,2.1,2.1,2.1h158c0.4,0,0.7-0.2,0.7-0.6
			s-0.2-0.7-0.6-0.7h-0.1H169.1c-1.8,0-3.3-1.5-3.3-3.3v-18.2c0-1.2,1-2.3,2.3-2.3h154.8c0.4,0,0.7-0.2,0.7-0.6s-0.2-0.7-0.6-0.7
			h-0.1L163.9,369.4L163.9,369.4L163.9,369.4z"/>
		<path class="st7" d="M166.5,421.4c0.9-3.1,4.3-15.8,0.1-23.8h149.9v23.8H166.5z"/>
		<path class="st2" d="M316.5,422.1h-150c-0.2,0-0.4-0.1-0.5-0.2s-0.1-0.4-0.1-0.6c0.7-2.5,4.2-15.4,0.1-23.4
			c-0.1-0.2-0.1-0.4,0-0.6c0.1-0.1,0.4-0.2,0.5-0.2h149.9c0.4,0,0.6,0.2,0.6,0.6v23.8C317.1,421.8,316.9,422.1,316.5,422.1
			L316.5,422.1z M167.4,420.8h148.5v-22.5H167.6C170.9,405.9,168.5,416.6,167.4,420.8z"/>
		<path class="st2" d="M255.9,403.6H233c-0.4,0-0.6-0.2-0.6-0.6s0.2-0.6,0.6-0.6h22.9c0.4,0,0.6,0.2,0.6,0.6
			C256.5,403.3,256.3,403.6,255.9,403.6z"/>
		<path class="st2" d="M225.5,410.9h-3.1c-0.4,0-0.6-0.2-0.6-0.6s0.2-0.6,0.6-0.6h3.1c0.4,0,0.6,0.2,0.6,0.6
			C226.1,410.6,225.9,410.9,225.5,410.9z"/>
		<path class="st2" d="M256.3,410.9h-25.6c-0.4,0-0.6-0.2-0.6-0.6s0.2-0.6,0.6-0.6h25.6c0.4,0,0.6,0.2,0.6,0.6
			C256.9,410.6,256.6,410.9,256.3,410.9z"/>
		<path class="st2" d="M255.8,418.4h-10.6c-0.4,0-0.6-0.2-0.6-0.6s0.2-0.6,0.6-0.6h10.6c0.4,0,0.6,0.2,0.6,0.6
			C256.4,418.1,256.2,418.4,255.8,418.4z"/>
		<path class="st2" d="M256.8,419.1v-18.2c0-1-0.7-1.7-1.7-1.7h-91.6c-0.7,0-1.2-0.5-1.2-1.2l0,0c0-0.7,0.5-1.2,1.2-1.2h159
			c1,0,1.7,0.7,1.7,1.7v23.3c0,1.5-1.2,2.7-2.7,2.7h-158c-0.7,0-1.2-0.5-1.2-1.2l0,0c0-0.7,0.5-1.2,1.2-1.2h90.6
			c1.5,0,2.7-1.2,2.7-2.7C256.8,419.2,256.8,419.1,256.8,419.1z"/>
		<path class="st2" d="M321.4,424.9h-158c-1,0.1-2-0.7-2.1-1.7s0.7-2,1.7-2.1c0.1,0,0.2,0,0.2,0h90.6c1.1,0,2.1-1,2.1-2.1v-18.2
			c0-0.6-0.5-1.1-1-1.1h-91.7c-1,0.1-2-0.7-2.1-1.7s0.7-2,1.7-2.1c0.1,0,0.2,0,0.2,0h159c1.2,0,2.3,1,2.3,2.3v23.3
			C324.7,423.4,323.3,424.9,321.4,424.9L321.4,424.9z M163.4,422.4c-0.4,0-0.7,0.2-0.7,0.6s0.2,0.7,0.6,0.7h0.1h158
			c1.1,0,2.1-1,2.1-2.1v-23.3c0-0.6-0.5-1.1-1.1-1.1h-159c-0.4,0-0.7,0.2-0.7,0.6s0.2,0.7,0.6,0.7h0.1h91.7c1.2,0,2.3,1,2.3,2.3V419
			c0,1.8-1.5,3.3-3.3,3.3L163.4,422.4L163.4,422.4L163.4,422.4z"/>
		<path class="st7" d="M166.5,449.4c0.9-3.1,4.3-15.8,0.1-23.8h149.9v23.8H166.5z"/>
		<path class="st2" d="M316.5,450h-150c-0.2,0-0.4-0.1-0.5-0.2s-0.1-0.4-0.1-0.5c0.7-2.5,4.2-15.4,0.1-23.4c-0.1-0.2-0.1-0.4,0-0.6
			c0.1-0.1,0.4-0.2,0.5-0.2h149.9c0.4,0,0.6,0.2,0.6,0.6v23.8C317.1,449.6,316.9,450,316.5,450L316.5,450z M167.4,448.8h148.5v-22.5
			H167.6C170.9,433.8,168.5,444.5,167.4,448.8z"/>
		<path class="st2" d="M255.9,431.7H233c-0.4,0-0.6-0.2-0.6-0.6s0.2-0.6,0.6-0.6h22.9c0.4,0,0.6,0.2,0.6,0.6
			C256.5,431.3,256.2,431.5,255.9,431.7z"/>
		<path class="st2" d="M225.4,438.9h-3.1c-0.4,0-0.6-0.2-0.6-0.6s0.2-0.6,0.6-0.6h3.1c0.4,0,0.6,0.2,0.6,0.6
			C226,438.7,225.7,438.9,225.4,438.9z"/>
		<path class="st2" d="M256.3,438.9h-25.6c-0.4,0-0.6-0.2-0.6-0.6s0.2-0.6,0.6-0.6h25.6c0.4,0,0.6,0.2,0.6,0.6
			C256.9,438.7,256.5,438.9,256.3,438.9L256.3,438.9z"/>
		<path class="st2" d="M255.7,446.4h-10.6c-0.4,0-0.6-0.2-0.6-0.6s0.2-0.6,0.6-0.6h10.6c0.4,0,0.6,0.2,0.6,0.6
			C256.3,446.2,256,446.4,255.7,446.4z"/>
		<path class="st13" d="M256.8,446.9v-18.2c0-1-0.7-1.7-1.7-1.7h-91.6c-0.7,0-1.2-0.5-1.2-1.2l0,0c0-0.7,0.5-1.2,1.2-1.2h159
			c1,0,1.7,0.7,1.7,1.7v23.2c0,1.5-1.2,2.7-2.7,2.7l0,0h-158c-0.7,0-1.2-0.5-1.2-1.2l0,0c0-0.7,0.5-1.2,1.2-1.2h90.6
			C255.5,449.8,256.8,448.5,256.8,446.9C256.8,447.1,256.8,447.1,256.8,446.9z"/>
		<path class="st2" d="M321.4,452.9h-158c-1,0.1-2-0.7-2.1-1.7s0.7-2,1.7-2.1c0.1,0,0.2,0,0.2,0h90.6c1.1,0,2.1-1,2.1-2.1v-18.2
			c0-0.6-0.5-1.1-1.1-1.1h-91.6c-1,0.1-2-0.7-2.1-1.7s0.7-2,1.7-2.1c0.1,0,0.2,0,0.2,0h159c1.2,0,2.3,1,2.3,2.3v23.3
			C324.7,451.4,323.3,452.9,321.4,452.9z M163.4,450.3c-0.4,0-0.7,0.2-0.7,0.6s0.2,0.7,0.6,0.7h0.1h158c1.1,0,2.1-1,2.1-2.1v-23.3
			c0-0.6-0.5-1.1-1.1-1.1h-159c-0.4,0-0.7,0.2-0.7,0.6s0.2,0.7,0.6,0.7h0.1h91.7c1.2,0,2.3,1,2.3,2.3v18.2c0,1.8-1.5,3.3-3.3,3.3
			L163.4,450.3L163.4,450.3L163.4,450.3z"/>
		<path class="st7" d="M166.5,365.7c0.9-3.1,4.3-15.8,0.1-23.8h149.9v23.8H166.5z"/>
		<path class="st2" d="M316.5,366.3h-150c-0.2,0-0.4-0.1-0.5-0.2s-0.1-0.4-0.1-0.5c0.7-2.5,4.2-15.4,0.1-23.4
			c-0.1-0.2-0.1-0.4,0-0.6c0.1-0.1,0.4-0.2,0.5-0.2h149.9c0.4,0,0.6,0.2,0.6,0.6v23.8C317.1,365.9,316.9,366.3,316.5,366.3
			L316.5,366.3z M167.4,365h148.5v-22.5H167.6C170.9,350,168.5,360.7,167.4,365z"/>
		<path class="st2" d="M256.3,347.8h-22.9c-0.4,0-0.6-0.2-0.6-0.6s0.2-0.6,0.6-0.6h22.9c0.4,0,0.6,0.2,0.6,0.6
			C256.9,347.6,256.6,347.8,256.3,347.8z"/>
		<path class="st2" d="M225.7,355.1h-3.1c-0.4,0-0.6-0.2-0.6-0.6s0.2-0.6,0.6-0.6h3.1c0.4,0,0.6,0.2,0.6,0.6
			C226.3,354.8,226.1,355.1,225.7,355.1z"/>
		<path class="st2" d="M256.6,355.1H231c-0.4,0-0.6-0.2-0.6-0.6s0.2-0.6,0.6-0.6h25.6c0.4,0,0.6,0.2,0.6,0.6
			C257.3,354.8,257,355.1,256.6,355.1z"/>
		<path class="st2" d="M256.2,362.6h-10.6c-0.4,0-0.6-0.2-0.6-0.6s0.2-0.6,0.6-0.6h10.6c0.4,0,0.6,0.2,0.6,0.6
			C256.8,362.3,256.4,362.6,256.2,362.6z"/>
		<path class="st13" d="M256.8,363.2V345c0-1-0.7-1.7-1.7-1.7h-91.6c-0.7,0-1.2-0.5-1.2-1.2l0,0c0-0.7,0.5-1.2,1.2-1.2h159
			c1,0,1.7,0.7,1.7,1.7v23.2c0,1.5-1.2,2.7-2.7,2.7l0,0h-158c-0.7,0-1.2-0.5-1.2-1.2l0,0c0-0.7,0.5-1.2,1.2-1.2h90.6
			C255.5,366,256.8,364.8,256.8,363.2C256.8,363.3,256.8,363.3,256.8,363.2z"/>
		<path class="st2" d="M321.4,369.1h-158c-1,0.1-2-0.7-2.1-1.7s0.7-2,1.7-2.1c0.1,0,0.2,0,0.2,0h90.6c1.1,0,2.1-1,2.1-2.1V345
			c0-0.6-0.5-1.1-1.1-1.1h-91.6c-1,0.1-2-0.7-2.1-1.7s0.7-2,1.7-2.1c0.1,0,0.2,0,0.2,0h159c1.2,0,2.3,1,2.3,2.3v23.3
			C324.7,367.6,323.3,369.1,321.4,369.1z M163.4,366.5c-0.4,0-0.7,0.2-0.7,0.6s0.2,0.7,0.6,0.7h0.1h158c1.1,0,2.1-1,2.1-2.1v-23.3
			c0-0.6-0.5-1.1-1.1-1.1h-159c-0.4,0-0.7,0.2-0.7,0.6s0.2,0.7,0.6,0.7h0.1h91.7c1.2,0,2.3,1,2.3,2.3v18.2c0,1.8-1.5,3.3-3.3,3.3
			L163.4,366.5L163.4,366.5L163.4,366.5z"/>
		<path class="st2" d="M221.5,254.8c0,0-12.7,0.4-31.2-4.1s-33.6-1.2-36.6,16.4s44.3,35.7,77.2,42.2s65.6,9.5,81.6,2.5
			s15.6-32,9.5-43.5c-6.2-11.5-26.7-13.2-37.3-11.5C274.3,258.6,221.5,254.8,221.5,254.8z"/>
		<path class="st2" d="M286.1,316.5c-18.8,0-40.8-3.7-55.2-6.5c-33.1-6.6-80.7-24.9-77.7-43c1.1-6.8,4.1-11.8,8.7-14.9
			c6.4-4.3,16.3-4.9,28.4-2c18.2,4.4,30.9,4.1,31,4.1l0,0c0.5,0,52.6,3.7,63.1,2.1c9.6-1.5,31.4-0.5,38.1,11.8
			c3.8,7.1,5.8,20.1,2.1,30.8c-2.2,6.5-6.3,11.2-11.8,13.5C306,315.4,296.5,316.5,286.1,316.5z M176.7,249.5c-5.7,0-10.5,1.2-14,3.6
			c-4.4,3-7.3,7.8-8.3,14.2c-2.7,16.6,42.9,34.9,76.7,41.6c22.3,4.4,62.6,10.7,81.3,2.5c5.2-2.2,9-6.6,11.1-12.8
			c3.6-10.3,1.7-23-2-29.8c-6.3-11.7-27.5-12.6-36.7-11.2c-10.6,1.6-60.8-1.8-63.3-2.1c-0.7,0-13.4,0.2-31.3-4.1
			C185.7,250.1,181.3,249.5,176.7,249.5z"/>
		<path class="st2" d="M304.4,177.6c-1.7-11.8-3.6-23.6-5.3-35.5c-1.6-11-2.3-22.8-5.2-33.5c-3.7-16-9.2-24.6-25.9-27.7
			s-35,14.8-35,22.8s5.7,26.1-3.1,54.6c-3,9.7,8.6,11.1,22.7,6.8L304.4,177.6z"/>
		<path class="st2" d="M304.4,178.2h-0.1l-51.7-12.6c-10.5,3.2-18.7,3.1-22.2-0.4c-1.7-1.7-2.1-4.2-1.1-7.3
			c6.8-22,4.8-37.9,3.7-47.4c-0.4-2.2-0.5-4.6-0.6-6.9c0-3.8,4.1-9.9,10-14.8c3.9-3.3,14.4-10.7,25.9-8.6
			c17.4,3.2,22.8,12.8,26.4,28.2c1.8,7.6,3.1,15.3,3.8,23.2c0.4,3.4,0.9,7,1.4,10.5c1,6.4,1.8,12.8,2.8,19.2l2.5,16.3
			c0,0.2,0,0.4-0.1,0.5C304.7,178.2,304.5,178.2,304.4,178.2z M252.6,164.4h0.1l51,12.4l-2.3-15.4c-1-6.4-2-12.8-2.8-19.2
			c-0.5-3.4-1-7-1.4-10.5c-0.7-7.8-2-15.4-3.8-22.9c-3.6-15.3-8.6-24.1-25.4-27.2c-7.6-1.4-16.9,1.7-24.9,8.4
			c-5.7,4.7-9.5,10.3-9.5,13.8c0.1,2.2,0.2,4.4,0.6,6.7c1.2,9.6,3.2,25.7-3.7,47.9c-0.9,2.6-0.5,4.7,0.9,6
			C234.4,167.5,242.5,167.4,252.6,164.4C252.5,164.4,252.6,164.4,252.6,164.4L252.6,164.4z"/>
		<path class="st14" d="M259.8,153c0,0-20.3,2.8-29.9,5.3c-9.6,2.5-12.9,5.9-16.4,12.4c-3.4,6.5-8.5,30.7-13.4,40.9
			c-4.9,10.2-13.9,12.8-15.4,23.6s7.1,14.5,13.5,15.8c4.8,0.9,9.6,1.4,14.5,1.6c0,0,10.5,24.6,30.8,26.5s35.5-12.3,44.7-17.6
			c9.2-5.3,9.9-17.2,10.2-31.2c0.4-13.9,8.5-45.1,6.3-53.7s-5.4-10-19.3-17.2C279.3,156.3,268.5,152.4,259.8,153z"/>
		<path class="st2" d="M247.2,279.7c-1.2,0-2.5,0-3.7-0.1c-19.1-1.7-29.7-23.4-31.2-26.5c-4.8-0.2-9.5-0.7-14.2-1.5
			c-5.9-1.1-15.8-4.8-14-16.4c1-6.4,4.4-10.1,8-13.9c3-2.8,5.5-6.3,7.5-10c2.6-5.4,5.3-14.9,7.8-23.4c2.1-7.4,4.2-14.4,5.7-17.5
			c3.4-6.4,6.9-10.2,16.7-12.8c9.5-2.5,29.7-5.2,29.9-5.3l0,0c8.5-0.6,19.2,3.1,25.7,6.5l1.2,0.6c12.8,6.5,16.3,8.4,18.5,17
			c1.2,5-0.9,16.9-3,29.6c-1.6,9-3.2,18.3-3.3,24.3c-0.2,12.8-0.6,26-10.5,31.6c-1.8,1.1-3.9,2.5-6.3,4.1
			C273.4,271.8,261.8,279.7,247.2,279.7z M259.8,153.6c-0.7,0.1-20.4,2.8-29.8,5.2c-9.5,2.5-12.7,5.9-16,12.1
			c-1.6,3-3.6,10-5.7,17.2c-2.5,8.5-5.2,18.1-7.9,23.5c-2,3.8-4.6,7.3-7.6,10.2c-3.7,3.8-6.9,7.3-7.6,13.3
			c-1.5,10.1,6.3,13.7,13.1,15c4.8,0.9,9.6,1.4,14.4,1.5c0.2,0,0.5,0.1,0.5,0.4c0.1,0.2,10.6,24.3,30.3,26.1
			c16,1.5,28.7-7.1,37.9-13.4c2.5-1.6,4.4-3.1,6.4-4.1c8.6-4.9,9.5-15.8,9.9-30.5c0.1-6,1.7-15.4,3.3-24.5
			c2.1-11.9,4.2-24.3,3.1-29.1c-2-8.1-5-9.6-17.9-16.1l-1.2-0.6C278.6,156.7,268.1,153,259.8,153.6z"/>
		<path class="st7" d="M195.9,217.9c-4.7,5.7-10.1,9.1-11.2,17.4c-0.2,1.6-0.2,3.3,0,4.9c1.2,1.8,5.2,6.4,12.7,4.2
			c9.4-2.7,8.4-15.8,2.7-23.9C199.1,219.1,197.5,218.1,195.9,217.9z"/>
		<path class="st2" d="M193.5,245.5c-3.8,0-7.3-2-9.4-5c0-0.1-0.1-0.1-0.1-0.2c-0.2-1.7-0.4-3.4-0.1-5c1-6.4,4.4-10.1,8-13.9
			c1.1-1.2,2.2-2.3,3.3-3.7c0.1-0.1,0.4-0.2,0.5-0.2c1.8,0.2,3.6,1.2,4.6,2.8c4.1,5.7,5.5,13.3,3.7,18.5c-1,3.1-3.6,5.5-6.6,6.4
			C196.2,245.3,194.8,245.5,193.5,245.5z M185.3,239.8c1.2,2,4.9,5.9,11.8,3.9c2.8-0.7,5-2.8,5.9-5.5c1.7-4.9,0.2-11.9-3.6-17.4
			c-0.7-1.2-2-2-3.4-2.3c-1.1,1.2-2.1,2.3-3.2,3.4c-3.7,3.8-6.9,7.3-7.6,13.3C185.1,236.8,185.1,238.3,185.3,239.8L185.3,239.8z"/>
		<path class="st7" d="M258.4,194.6c8.6-3.9,13.3-10.7,17.2-23.6c1.5-4.7,2.6-9.4,3.6-14.2c-5.9-2.2-13.2-4.2-19.3-3.7
			c0,0-8.7,1.2-17.5,2.7c-0.7,4.6-2.5,17.5-0.5,27.1C244.3,194.6,249.7,198.6,258.4,194.6z"/>
		<path class="st2" d="M252.5,196.7c-1.4,0-2.7-0.2-3.8-0.9c-3.4-1.7-5.9-6-7.4-12.9c-2-9.6-0.4-22.3,0.5-27.2
			c0-0.2,0.2-0.5,0.5-0.5c8.6-1.5,17.5-2.7,17.5-2.7c7.3-0.5,15.4,2.1,19.6,3.7c0.2,0.1,0.5,0.4,0.4,0.7c-0.9,4.8-2.1,9.6-3.6,14.3
			c-4.1,13.4-9,20.2-17.6,24l0,0C256.6,196.1,254.5,196.6,252.5,196.7z M242.9,156.2c-0.9,5.2-2.3,17.2-0.4,26.4
			c1.4,6.4,3.6,10.5,6.7,12.1c2.5,1.2,5.3,1,9-0.6c8.1-3.7,12.9-10.3,16.9-23.3c1.4-4.4,2.5-9,3.3-13.5c-4.2-1.6-11.8-3.9-18.5-3.4
			C259.8,153.6,251.3,154.8,242.9,156.2z M258.4,194.6L258.4,194.6z"/>
		<path class="st2" d="M217.6,240.2c-0.1,0-0.1,0-0.2,0c-0.4-0.1-0.5-0.5-0.4-0.7l0,0c0.1-0.1,6.2-15.3,6.2-19.5
			c0-3-1.4-5.9-2.8-9.2c-0.7-1.5-1.4-3-2-4.7c-2.1-5.5,2.7-14,3.3-15.3c0.2-2.2,3.6-27,6.8-31.5c0.2-0.2,0.6-0.4,0.9-0.1l0,0
			c0.2,0.2,0.4,0.6,0.1,0.9c-3.1,4.4-6.6,30.9-6.6,31.2c0,0.1,0,0.1-0.1,0.2c0,0.1-5.4,9.1-3.3,14.3c0.6,1.6,1.4,3.2,2,4.7
			c1.6,3.6,3,6.6,3,9.7c0,4.4-5.9,19.3-6.2,20C218.1,240.1,217.9,240.2,217.6,240.2z"/>
		<path class="st7" d="M188.4,209.4l4.7-4.9c3.1,1.6,6.3,3,9.6,4.1c12.4,4.2,18.2,6.8,18.8,14.2c0,0,8.4-5.3,16.6-4.3
			c8.3,1,15.8,4.3,18.2,4.7l2.5,0.4l0.6,4.3l-4.7,24.4l-36.1-3.7L194,227L188.4,209.4z"/>
		<path class="st2" d="M254.5,252.5L254.5,252.5l-36.1-3.7c-0.1,0-0.2-0.1-0.4-0.1l-24.6-21.6c-0.1-0.1-0.1-0.1-0.1-0.2l-5.5-17.2
			c-0.1-0.2,0-0.5,0.1-0.6l4.7-4.9c0.2-0.2,0.5-0.2,0.7-0.1c3,1.6,6.2,3,9.4,3.9c12.3,4.1,18.1,6.8,19.1,13.8
			c2.3-1.4,9.2-4.7,16.1-3.9c4.8,0.6,9.6,1.8,14.2,3.4c1.4,0.5,2.7,0.9,4.1,1.1l2.5,0.4c0.2,0,0.5,0.2,0.5,0.5l0.6,4.3
			c0,0.1,0,0.1,0,0.2l-4.6,24.3C255,252.2,254.8,252.5,254.5,252.5z M218.8,247.6l35.2,3.6l4.4-23.6l-0.5-3.7l-2-0.2
			c-1.5-0.2-2.8-0.7-4.3-1.2c-4.6-1.6-9.1-2.7-13.9-3.4c-8-0.9-16.1,4.2-16.3,4.2c-0.2,0.1-0.4,0.1-0.6,0s-0.4-0.2-0.4-0.5
			c-0.6-7-6-9.5-18.3-13.7c-3.2-1-6.3-2.2-9.2-3.8l-4.1,4.3l5.4,16.7L218.8,247.6z"/>
		<polygon class="st2" points="186.8,208.4 216.1,233.4 219.2,228.5 261.1,227.5 258.6,254.6 218.8,252.7 216.1,254.6 194.6,238.6 
					"/>
		<path class="st2" d="M258.6,255.2L258.6,255.2l-39.5-1.8l-2.6,1.7c-0.2,0.1-0.5,0.1-0.7,0l-21.6-16c-0.1-0.1-0.2-0.2-0.2-0.4
			l-7.8-30.2c-0.1-0.2,0-0.5,0.2-0.7c0.2-0.1,0.5-0.1,0.7,0.1l28.7,24.5l2.7-4.3c0.1-0.1,0.2-0.2,0.5-0.2l41.9-1
			c0.1,0,0.4,0.1,0.5,0.2c0.1,0.1,0.1,0.2,0.1,0.5l-2.5,27.1C259.1,255,258.9,255.2,258.6,255.2z M218.8,252.1L218.8,252.1L258,254
			l2.3-25.9l-40.9,0.9l-3,4.7c-0.1,0.1-0.2,0.2-0.4,0.2s-0.4,0-0.5-0.1l-27.7-23.6l7.1,28.1l21.1,15.6l2.3-1.6
			C218.6,252.1,218.7,252.1,218.8,252.1z"/>
		<path class="st7" d="M288.8,200.2l-0.6,35.1c0,0-18.2,10.2-28.3,12.9c-5.5,1.7-11.5,2.6-17.2,2.8c-1,0-4.9-6.5-7.1-8.6
			c-2.2-2.1-3.9-2.2-7.9-4.2c-5.5-2.7-7.9-3.2-7.5-2s0.6,2.5,3.4,4.1s4.7,2.8,4.7,2.8l0.6,1.2c0,0-6.8-1-9.6-1.6s-9.9-5.5-9.9-5.5
			s-3-0.1-0.9,3.6c2.1,3.7,4.2,3.8,4.2,3.8c0.4,2.2,1.5,4.3,3.1,5.9c1.4,1.2,2.8,2.3,4.3,3.4c0,0-5.9-1.6-5.3,0
			c0.6,1.6,4.3,2.2,9,4.3s15.1,2.5,20.9,3.4c10.6,1.4,21.3,1.6,32,0.6c12.3-1.2,30.8-9.6,34.2-12.3c3.4-2.7,1.2-33.9,0.4-41
			c-0.9-7.1-2.8-20.3-4.1-26.5c-1.2-6.2-6.2-14.8-9.2-16.6C294.9,164.1,289.4,169.6,288.8,200.2z"/>
		<path class="st2" d="M263.8,263.2c-6.4,0-12.8-0.4-19.2-1.2c-1.7-0.2-4.1-0.5-6.4-0.7c-5.4-0.5-11.5-1.1-14.8-2.7
			c-1.7-0.7-3.2-1.4-4.6-1.8c-2.6-1-4.2-1.6-4.7-2.8c-0.1-0.4-0.1-0.7,0.1-1.1c0.5-0.5,1.7-0.5,3.1-0.4c-0.6-0.5-1.4-1.1-2.1-1.7
			c-1.6-1.6-2.7-3.6-3.2-5.8c-0.9-0.2-2.6-1.1-4.2-4.1c-0.9-1.6-1.1-2.7-0.6-3.6c0.5-0.6,1.2-1,2-0.9c0.1,0,0.2,0,0.4,0.1
			c0.1,0,7,4.8,9.6,5.4c2,0.5,6.3,1.1,8.4,1.4l0,0c-0.5-0.4-2.1-1.4-4.4-2.7c-3-1.7-3.3-3.1-3.7-4.4c-0.1-0.4,0-0.9,0.4-1.1
			c0.4-0.4,1.2-1,8.1,2.5c1.4,0.7,2.5,1.1,3.3,1.5c1.7,0.6,3.3,1.5,4.7,2.8c1.2,1.5,2.5,3,3.6,4.6c1,1.5,2,2.7,3.2,3.9
			c5.8-0.2,11.5-1.1,17-2.8c9.2-2.5,25.5-11.3,27.8-12.7l0.6-34.7l0,0c0.4-19.8,3.1-32.6,7.4-35c0.9-0.5,2-0.5,2.8,0
			c3.3,2,8.3,11,9.5,17s3.1,19.6,4.1,26.5c0.4,3.2,3.6,38.2-0.5,41.5c-3.6,3-22.3,11.2-34.5,12.4C272.4,263.1,268,263.2,263.8,263.2
			z M215.5,253.6c0.5,0.6,2,1.2,3.8,1.8c1.4,0.5,3,1.1,4.7,1.8c3.1,1.5,9.1,2.1,14.3,2.6c2.3,0.2,4.7,0.5,6.4,0.7
			c10.6,1.4,21.3,1.6,31.9,0.6c12.1-1.2,30.4-9.4,33.9-12.2c3-2.3,1.2-31.3,0.1-40.4c-0.9-6.9-2.7-20.2-3.9-26.5
			c-1.2-6.3-6.2-14.5-9-16.3c-0.5-0.2-1.1-0.2-1.6,0c-1.5,0.7-6.2,5.5-6.8,34l-0.6,35.1c0,0.2-0.1,0.4-0.4,0.5
			c-0.1,0.1-18.3,10.2-28.4,13.1c-5.7,1.7-11.5,2.6-17.4,2.8c-0.7,0-1.5-0.9-4.1-4.4c-1.1-1.5-2.2-3-3.4-4.4c-1.2-1.1-2.7-2-4.2-2.5
			c-1-0.4-2.1-0.9-3.4-1.6c-4.7-2.3-6.2-2.6-6.6-2.6c0.2,1.1,0.6,2.2,3.1,3.4c2.7,1.6,4.7,2.8,4.7,2.8c0.1,0.1,0.1,0.1,0.2,0.2
			l0.6,1.2c0.1,0.2,0.1,0.5,0,0.6c-0.1,0.2-0.4,0.2-0.6,0.2c-0.2,0-6.8-1-9.6-1.6s-8.7-4.8-9.9-5.5c-0.2,0-0.6,0.1-0.7,0.4
			c-0.1,0.1-0.2,0.7,0.6,2.2c2,3.3,3.8,3.6,3.8,3.6c0.2,0,0.5,0.2,0.5,0.5c0.4,2.1,1.4,3.9,2.8,5.5c1.4,1.2,2.7,2.3,4.2,3.3
			c0.2,0.2,0.4,0.6,0.1,0.9c-0.1,0.2-0.4,0.4-0.7,0.2C218.6,253.8,217,253.6,215.5,253.6L215.5,253.6z M288.2,235.1L288.2,235.1z"/>
		<path class="st7" d="M212.7,244.5c0,0,7.3,4.3,12.8,5.5"/>
		<path class="st2" d="M225.5,250.6h-0.1c-5.5-1.2-12.7-5.4-13.1-5.7c-0.2-0.1-0.4-0.5-0.2-0.9c0.1-0.2,0.5-0.4,0.9-0.2l0,0
			c0.1,0,7.3,4.3,12.7,5.5c0.4,0,0.6,0.4,0.5,0.7C226.1,250.4,225.9,250.6,225.5,250.6L225.5,250.6z"/>
		<path class="st7" d="M220.1,253.7c2.3,0.9,4.8,1.4,7.3,1.5"/>
		<path class="st2" d="M227.3,255.8c-2.6-0.1-5-0.6-7.5-1.6c-0.4-0.1-0.5-0.5-0.4-0.7c0.1-0.4,0.5-0.5,0.7-0.4l0,0
			c2.2,0.9,4.7,1.4,7,1.5c0.4,0,0.6,0.2,0.6,0.6S227.7,255.8,227.3,255.8L227.3,255.8z"/>
		<path class="st7" d="M213.7,247.6c3.8,2.7,8.3,4.7,12.8,5.8"/>
		<path class="st2" d="M226.3,254h-0.1c-4.7-1.1-9.1-3.2-12.9-5.9c-0.2-0.2-0.4-0.6-0.1-0.9c0.2-0.2,0.6-0.4,0.9-0.1
			c3.8,2.7,8,4.6,12.6,5.7c0.4,0.1,0.5,0.4,0.5,0.7l0,0C227,253.8,226.7,254,226.3,254z"/>
		<path class="st14" d="M280.4,261.5c12.1-2.2,27.5-9.2,30.5-11.8c3.4-2.8,1.2-33.9,0.4-41c-0.9-7.1-2.8-20.3-4.1-26.5
			s-6.2-14.8-9.2-16.6s-8.6,4.1-9.2,34.5l-0.6,35.1c0,0-7,3.9-14.8,7.6C276.2,246.1,281.4,253,280.4,261.5z"/>
		<path class="st2" d="M280.4,262.1c-0.1,0-0.2,0-0.4-0.1c-0.1-0.1-0.2-0.4-0.1-0.5c0.9-8.3-3.9-14.9-7-18.2
			c-0.1-0.1-0.1-0.4-0.1-0.5c0-0.2,0.1-0.4,0.4-0.5c6.8-3.2,13.1-6.6,14.5-7.4l0.6-34.7c0.4-19.8,3.1-32.6,7.4-35
			c0.9-0.5,2-0.5,2.8,0c3.3,2,8.3,11,9.5,17s3.1,19.6,4.1,26.5c0.4,3.2,3.6,38.2-0.5,41.5c-3.3,2.7-18.8,9.7-30.8,11.9H280.4z
			 M274.3,243c3.1,3.4,7.4,9.9,6.8,17.7c12.3-2.5,26.7-9.2,29.4-11.5c3-2.3,1.2-31.3,0.1-40.4c-0.9-6.9-2.7-20.2-3.9-26.5
			c-1.2-6.3-6.2-14.5-9-16.3c-0.5-0.2-1.1-0.2-1.6,0c-1.5,0.7-6.2,5.5-6.8,34l-0.6,35.1c0,0.2-0.1,0.4-0.4,0.5
			C288.3,235.7,281.6,239.4,274.3,243L274.3,243z"/>
		<path class="st7" d="M248.9,149.3c0,0-2.7,16-3.1,25.9c-0.4,9.9,7.1,19.8,17.6,7.1s8.7-33.6,8.7-33.6
			C264.9,152.2,256.4,152.5,248.9,149.3z"/>
		<path class="st2" d="M254.1,188.9c-0.7,0-1.6-0.1-2.3-0.5c-3.9-1.5-6.6-7.1-6.5-13.3c0.2-9.9,3-25.9,3.1-26c0-0.1,0.1-0.4,0.4-0.5
			c0.1-0.1,0.4-0.1,0.5,0c7.4,3,15.6,2.8,22.9-0.5c0.2-0.1,0.6,0,0.9,0.2c0,0.1,0,0.1,0.1,0.2c0.1,0.9,1.6,21.3-9,34
			C260,187.6,256.6,188.9,254.1,188.9z M249.4,150.2c-0.5,3.3-2.7,16.5-3,25c-0.1,5.8,2.2,10.8,5.8,12.2c3.2,1.2,6.9-0.7,10.8-5.4
			c9-10.8,8.9-28.1,8.7-32.3C264.5,152.9,256.5,153,249.4,150.2L249.4,150.2z"/>
		<path class="st2" d="M249.4,170.1L249.4,170.1c-0.5,0-0.6-0.4-0.6-0.7l0,0c0.7-4.6,0.2-12.9,0.2-13.1c0-0.4,0.2-0.6,0.5-0.6l0,0
			c0.4,0,0.6,0.2,0.6,0.6c0,0.4,0.6,8.6-0.2,13.3C250,169.9,249.7,170.1,249.4,170.1z"/>
		<path class="st7" d="M187.7,231.9c-0.5,1.4-0.2,3,0.5,4.2c1.2,2,7.9,5.9,7.9,4.4s-3.3-3.7-3.4-4.8c-0.2-1-0.6-1.8-1.1-2.7
			C191.4,233,189,230.1,187.7,231.9z"/>
		<path class="st2" d="M195.6,241.5c-2,0-6.8-3.2-7.9-5c-0.9-1.5-1-3.2-0.5-4.8c0,0,0-0.1,0.1-0.1c0.4-0.5,1-0.9,1.6-0.9l0,0
			c1.5,0,3,1.7,3.1,2c0.6,0.9,1,2,1.2,3c0.4,0.6,0.7,1.1,1.2,1.6c1.1,1.1,2.2,2.2,2.2,3.3c0,0.5-0.2,0.9-0.7,1
			C195.7,241.5,195.6,241.5,195.6,241.5z M188.2,232.3c-0.4,1.2-0.1,2.5,0.5,3.6c1,1.6,5.3,4.2,6.7,4.4c-0.5-0.9-1-1.6-1.7-2.2
			c-0.7-0.6-1.4-1.4-1.6-2.2c-0.2-0.9-0.5-1.7-1-2.5c-0.5-0.7-1.2-1.2-2.1-1.4C188.5,231.9,188.3,232,188.2,232.3z"/>
		<path class="st7" d="M184.5,222.8c0,0-0.2,4.6,0.5,6.6s9,7.9,11.1,6.8c2.1-1.1-4.4-6.8-5.9-8.5C188.4,226,186.4,224.3,184.5,222.8
			z"/>
		<path class="st2" d="M195.4,237c-0.7,0-1.5-0.2-2.2-0.5c-3.1-1.2-8.1-4.8-8.9-6.8c-0.9-2.2-0.5-6.8-0.5-6.9c0-0.2,0.1-0.5,0.4-0.5
			c0.2-0.1,0.5,0,0.6,0.1c2.1,1.6,3.9,3.2,5.8,5c0.4,0.4,0.9,0.9,1.5,1.6c3,3,5.3,5.4,5,6.9c0,0.5-0.4,0.9-0.7,1
			C196.1,237,195.8,237,195.4,237z M185.1,224c-0.1,1.7,0,3.6,0.5,5.3c0.5,1.4,4.9,4.8,8.1,6c1.5,0.6,2,0.4,2.1,0.4
			c0.2-1.1-3-4.4-4.6-5.9c-0.6-0.6-1.2-1.2-1.6-1.6C188.3,226.6,186.7,225.3,185.1,224L185.1,224z"/>
		<path class="st7" d="M184.5,217.3c0,0-0.6,4.6,0,6.6s8.5,8.5,10.6,7.5s-3.9-7-5.3-8.9C188.2,220.7,186.4,218.9,184.5,217.3z"/>
		<path class="st2" d="M194.6,232.2c-0.9,0-1.6-0.2-2.3-0.6c-3.1-1.5-7.9-5.4-8.4-7.4c-0.6-2.3,0-6.8,0-7s0.1-0.4,0.4-0.5
			c0.2-0.1,0.5,0,0.6,0.1c2,1.7,3.7,3.4,5.4,5.4c0.2,0.4,0.7,1,1.4,1.6c2.7,3.2,4.8,5.7,4.4,7.3c-0.1,0.4-0.4,0.7-0.7,1
			C195.2,232.2,194.9,232.2,194.6,232.2z M185,218.5c-0.2,1.7-0.2,3.6,0.1,5.3c0.4,1.4,4.6,5,7.8,6.7c1.5,0.7,2,0.5,2.1,0.5
			c0.4-1.1-2.7-4.6-4.2-6.3c-0.6-0.7-1.1-1.4-1.5-1.7C187.9,221.3,186.6,219.9,185,218.5z"/>
		<path class="st7" d="M188.3,212.1c0,0-4.7-2.5-5.4,0.6s2.8,6.4,6,9.1c3.2,2.7,4.7,2.2,4.7-0.4S188.3,212.1,188.3,212.1z"/>
		<path class="st2" d="M192.2,224.2c-1.5-0.2-2.7-0.9-3.8-2c-3.8-3.1-7.1-6.3-6.3-9.7c0.1-0.7,0.7-1.5,1.4-1.7
			c1.8-0.9,4.7,0.6,4.9,0.7c0.1,0,0.1,0.1,0.2,0.1c0.6,0.7,5.4,7.1,5.4,9.7c0,1.4-0.4,2.2-1.1,2.6
			C192.9,224.2,192.6,224.2,192.2,224.2z M184.8,211.7c-0.2,0-0.6,0-0.9,0.1c-0.4,0.1-0.6,0.5-0.7,1c-0.6,2.7,2.6,5.8,5.9,8.5
			c2.3,1.8,3.1,1.7,3.2,1.6s0.4-0.6,0.4-1.5c0-1.8-3.6-6.9-5-8.9C186.9,212.1,186,211.9,184.8,211.7L184.8,211.7z"/>
		<path class="st7" d="M187.8,309.9c0,0-6.2,3.3-17.6,3.7c-11.5,0.4-20.9-5.8-15.6-10.7c5.7-5.2,13.3-7.6,20.9-6.5
			c7.4,1.2,18.5,4.1,18.5,4.1L187.8,309.9z"/>
		<path class="st2" d="M169.1,314.2c-7.8,0-14.8-2.8-16.4-6.8c-0.7-1.8-0.1-3.8,1.4-5c5.8-5.3,13.7-7.8,21.4-6.8
			c7.4,1.2,18.5,4.1,18.5,4.1c0.2,0,0.4,0.2,0.4,0.4c0.1,0.2,0,0.4-0.1,0.6l-6.2,9.5c0,0.1-0.1,0.1-0.2,0.2c-0.2,0.1-6.4,3.3-18,3.8
			L169.1,314.2L169.1,314.2z M172,296.6c-6.3,0.1-12.3,2.5-17,6.7c-1.2,0.9-1.6,2.3-1.1,3.7c1.2,3.1,7.9,6.3,16.3,5.9
			c10.3-0.4,16.3-3.1,17.2-3.6l5.5-8.6c-2.7-0.6-11.5-2.8-17.6-3.8C174.3,296.7,173.1,296.6,172,296.6z M187.8,309.9L187.8,309.9z"
			/>
		<path class="st7" d="M189.5,299.5c0.5,0,1.1,0.1,1.7,0.1c-3.8-1-10.6-2.6-15.8-3.4c-7.6-1-15.3,1.4-20.9,6.5
			c-2.7,2.5-1.6,5.3,1.7,7.5c-0.4-3.6,1.6-6.9,4.9-8.3C168.1,298.8,182.5,298.8,189.5,299.5z"/>
		<path class="st2" d="M156.3,310.9c-0.1,0-0.2,0-0.4-0.1c-2.1-1.4-3.3-3-3.4-4.7c0-1.5,0.6-2.8,1.7-3.8c5.8-5.3,13.7-7.8,21.4-6.8
			c5,0.9,12.1,2.5,15.8,3.4c0.4,0.1,0.5,0.4,0.5,0.7c-0.1,0.2-0.4,0.5-0.6,0.5c-0.6,0-1.2,0-1.7-0.1l0,0c-7.4-0.9-21.4-0.7-28,2.5
			c-3.1,1.2-4.9,4.3-4.6,7.6c0,0.2-0.1,0.5-0.2,0.6C156.5,310.9,156.4,310.9,156.3,310.9z M172,296.6c-6.3,0.1-12.3,2.5-17,6.7
			c-0.9,0.6-1.4,1.7-1.4,2.8c0.2,1.2,0.9,2.3,2,3c0.1-3.3,2.1-6.4,5.3-7.6c5.7-2.7,15.6-3.2,22.8-3c-2.8-0.6-5.8-1.2-8.3-1.7
			C174.3,296.7,173.1,296.6,172,296.6z"/>
		<path class="st2" d="M316.4,275.8c0,0-12.3,18.5-24.6,25.9c-12.3,7.4-68.6,8.3-80,8.3H188v-8.6c0,0,37.8-5.4,58.7-17.2
			s32-25,48.4-30.4s30.8,3.7,30.4,25.9"/>
		<path class="st2" d="M211.7,310.4h-23.8c-0.4,0-0.6-0.2-0.6-0.6v-8.6c0-0.2,0.2-0.6,0.5-0.6c0.4,0,37.9-5.4,58.5-17.1
			c7.8-4.6,15.1-9.5,22.3-14.9c9-6.6,16.6-12.3,26.4-15.5c8.3-2.7,16-1.8,21.7,2.5c6.3,4.7,9.7,13.2,9.5,24c0,0.4-0.2,0.6-0.6,0.6
			l0,0c-0.4,0-0.6-0.2-0.6-0.6l0,0c0.2-10.3-3-18.6-9-23c-5.4-4.1-12.7-4.8-20.6-2.2c-9.4,3.1-17.1,8.7-26,15.3
			c-7.1,5.4-14.7,10.5-22.4,15c-19.5,11.1-53.7,16.5-58.4,17.2v7.5h23.2c0.6,0,66.4-0.1,79.7-8.1c12.1-7.3,24.3-25.5,24.4-25.6
			c0.2-0.2,0.6-0.4,0.9-0.1c0.2,0.1,0.4,0.5,0.1,0.9l0,0c-0.1,0.1-12.6,18.7-24.9,26C278.3,310.4,212.3,310.4,211.7,310.4z"/>
		<path class="st7" d="M272.2,308.3c-0.4,0-0.6-0.2-0.6-0.6s0.2-0.6,0.6-0.6c13.3-2.3,25.7-8.4,35.6-17.6c0.2-0.2,0.6-0.2,0.9,0l0,0
			c0.2,0.2,0.2,0.6,0,0.9l0,0c-10.1,9.4-22.7,15.6-36.2,17.9L272.2,308.3z"/>
		<path class="st7" d="M312.7,285.5c-0.1,0-0.2,0-0.4-0.1c-0.2-0.2-0.4-0.6-0.1-0.9c1.2-1.5,2.5-3.2,3.4-4.9
			c0.1-0.2,0.5-0.4,0.9-0.2c0.2,0.1,0.5,0.5,0.2,0.9l0,0c-1,1.8-2.2,3.6-3.6,5.2C313,285.5,312.8,285.5,312.7,285.5z"/>
		<path class="st7" d="M234.2,289.7c-0.4,0-0.6-0.2-0.6-0.6s0.2-0.6,0.6-0.6c7-0.5,13.8-3,19.3-7.3c0.2-0.2,0.6-0.2,0.9,0l0,0
			c0.2,0.2,0.1,0.6-0.1,0.9C248.5,286.6,241.5,289.3,234.2,289.7z"/>
		<path class="st2" d="M180.5,258.3l-1.4-0.1"/>
		<path class="st2" d="M180.5,258.9L180.5,258.9l-1.4-0.1c-0.4,0-0.6-0.4-0.6-0.6c0-0.4,0.4-0.6,0.6-0.6l1.4,0.1
			c0.4,0,0.6,0.4,0.6,0.6S180.9,258.9,180.5,258.9L180.5,258.9z"/>
		<path class="st7" d="M296.2,311.5c6.2-2.2,12.4-3.8,18.8-4.9c8.6-1.2,15.6,0,18.1,5.3s0.9,11.9-7.8,13.5
			c-8.6,1.6-24.3-1.6-25.9-1.6c-1.5-0.1-2.8-0.6-4.1-1.2L296.2,311.5z"/>
		<path class="st2" d="M319.6,326.5c-5.8-0.1-11.5-0.7-17.1-1.7c-1.5-0.2-2.6-0.4-3-0.4c-1.5-0.1-3-0.6-4.4-1.2
			c-0.2-0.1-0.4-0.4-0.4-0.6l0.9-11.1c0-0.2,0.1-0.5,0.4-0.5c6.2-2.2,12.6-3.8,19-4.9c9.9-1.4,16.4,0.6,18.7,5.7
			c1.4,2.8,1.5,6.2,0.1,9c-1,2-3.2,4.4-8.4,5.4C323.5,326.4,321.5,326.5,319.6,326.5z M296.1,322.2c1.1,0.5,2.2,0.9,3.4,1
			c1,0.1,2.1,0.2,3.1,0.4c5.2,0.9,16.1,2.5,22.7,1.2c3.7-0.7,6.3-2.3,7.5-4.8c1.1-2.5,1.1-5.4-0.1-7.9c-2.7-5.8-11-5.9-17.4-4.9
			c-6.3,1.1-12.4,2.7-18.3,4.8L296.1,322.2z"/>
		<path class="st7" d="M323.3,306.2c2.6,1,7.5,3.8,6.6,10.2c-1.2,8.6-11.5,8.6-18.5,8.6c-0.5,0-1,0.1-1.5,0.2
			c5.2,0.6,11.2,1,15.5,0.2c8.6-1.6,10.2-8.3,7.8-13.5C331.5,308.4,327.9,306.7,323.3,306.2z"/>
		<path class="st2" d="M319.6,326.5c-3.2,0-6.5-0.2-9.7-0.6c-0.2,0-0.5-0.2-0.5-0.6c0-0.2,0.1-0.6,0.5-0.6c0.5-0.1,1.1-0.2,1.7-0.2
			c7,0,16.7,0,17.9-8.1c0.9-5.9-3.6-8.5-6.3-9.5c-0.2-0.1-0.5-0.4-0.4-0.7c0.1-0.2,0.4-0.5,0.6-0.5c5.3,0.5,8.9,2.5,10.5,6
			c1.4,2.8,1.5,6.2,0.1,9c-1,2-3.2,4.4-8.4,5.4C323.5,326.4,321.5,326.5,319.6,326.5z M319.4,325.3c2,0,3.9-0.1,5.9-0.5
			c3.7-0.7,6.3-2.3,7.5-4.8c1.1-2.5,1.1-5.4-0.1-7.9c-1.1-2.3-3.3-4.1-5.8-4.7c2.8,2,4.3,5.5,3.7,9
			C329.7,322.4,324.7,324.5,319.4,325.3z"/>
		<path class="st2" d="M176,249c0,0-13.9-2.5-23,4.6c-9.1,7-7.8,14.4,0.9,25s30.8,29.6,78.8,38.2s62.8,5.8,62.8,5.8l0.9-11.1
			c-20.6,0.1-40.8-6.4-57.5-18.5c-26.8-19.7-38.9-32.6-58.1-34.7"/>
		<path class="st2" d="M287.1,323.7c-8.9,0-25.7-1.1-54.6-6.3c-50.9-9.1-72.3-29.9-79.2-38.4c-5.4-6.8-7.6-11.7-7.1-16.3
			c0.4-3.4,2.5-6.6,6.4-9.6c9.1-7,22.9-4.8,23.5-4.7c0.4,0,0.5,0.4,0.5,0.6l0,0c0,0.4-0.4,0.6-0.7,0.5l0,0c-0.1,0-13.8-2.3-22.5,4.4
			c-3.6,2.8-5.5,5.7-5.9,8.7c-0.5,4.1,1.7,9,6.9,15.4c6.8,8.4,28,28.9,78.4,37.9c42.9,7.6,59.2,6.2,62.1,5.8l0.7-9.9
			c-20.6-0.1-40.5-6.7-57.1-18.6c-6-4.4-11.5-8.6-16.3-12.3c-16.1-12.4-26.8-20.8-41.6-22.4c-0.4,0-0.6-0.4-0.5-0.7
			c0-0.4,0.4-0.6,0.7-0.5c15.1,1.6,25.9,10,42.2,22.7c4.8,3.7,10.1,7.9,16.3,12.3c16.6,11.9,36.6,18.3,57,18.3c0.1,0,0.4,0,0.5,0.1
			s0.1,0.2,0.1,0.5l-0.9,11.1c0,0.2-0.2,0.5-0.5,0.6C292.7,323.5,289.9,323.7,287.1,323.7z"/>
		<path class="st7" d="M170.8,259.5c-0.2,0-0.6-0.2-0.6-0.5c-0.1-0.4,0.1-0.6,0.5-0.7l0,0c1.5-0.2,3-0.5,4.4-0.5
			c0.4,0,0.6,0.2,0.6,0.6s-0.2,0.6-0.6,0.6l0,0C173.8,259.1,172.3,259.3,170.8,259.5L170.8,259.5z"/>
		<path class="st7" d="M290.3,311.8L290.3,311.8c-0.2,0-28.9-0.9-60.7-25.4c-22.2-17-35.6-24.8-46.4-27c-0.4-0.1-0.6-0.4-0.5-0.7
			s0.4-0.6,0.7-0.5c11.1,2.1,24.8,10,47,27.1c31.5,24.3,59.7,25.1,60,25.1c0.4,0,0.6,0.2,0.6,0.6l0,0
			C290.9,311.6,290.6,311.8,290.3,311.8z"/>
		<path class="st7" d="M290,132.2c-7.5,3.9-8.6-4.1-8.6-8.9c0.1,0,0.1-0.1,0.1-0.2c0.5-2.2,0-13.3-6.4-17.7
			c-5.7-3.9-13.1-7.3-20-7.3c-4.9,0-9.2,3.1-11.8,7.1c-3.1,4.7-2.8,10.2-3.1,15.6c-0.2,5.4-0.7,11.5,0.4,16.9
			c1.5,7.3,8.3,22.5,16.5,22.5c7.5,0,20.8-11.2,25.2-17.7c1-0.4,2-0.9,2.8-1.6C286.8,139.4,290.3,137.1,290,132.2z"/>
		<path class="st2" d="M257,161c-8.9,0-15.8-16.3-17.1-23c-1-4.8-0.7-10-0.5-14.9l0.1-2.2l0.1-2.2c0.1-4.7,0.4-9.6,3.2-13.8
			c3.1-4.6,7.6-7.4,12.3-7.4l0,0c6.2,0,13.5,2.7,20.3,7.4c6.8,4.7,7.3,16,6.6,18.3c0,0.1-0.1,0.2-0.1,0.2c0,2.7,0.4,7.3,2.7,8.6
			c1.2,0.7,2.8,0.5,4.9-0.6c0.1-0.1,0.4-0.1,0.6,0c0.1,0.1,0.2,0.2,0.4,0.5c0.2,4.8-2.8,7.4-4.7,8.9l-0.4,0.4
			c-0.9,0.7-1.7,1.4-2.8,1.7C278.3,149.3,265.1,161,257,161z M255.2,98.8c-4.3,0-8.5,2.6-11.3,6.8c-2.6,3.9-2.7,8.4-3,13.2l-0.1,2.2
			l-0.1,2.2c-0.2,4.9-0.5,9.9,0.4,14.5c1.6,7.6,8.4,22,15.9,22c7,0,20.1-10.6,24.8-17.5c0.1-0.1,0.2-0.2,0.4-0.2
			c1-0.4,1.8-0.9,2.6-1.5l0.4-0.4c1.6-1.4,4.1-3.3,4.2-6.9c-1.6,0.9-3.6,1-5.3,0.1c-2.7-1.7-3.3-6.3-3.3-10c0-0.1,0.1-0.4,0.2-0.5
			c0.5-2.1-0.1-12.8-6.2-17C268.3,101.4,261.1,98.8,255.2,98.8L255.2,98.8z"/>
		<path class="st2" d="M255.2,140.2c-0.5,0-1-0.1-1.4-0.2c-0.2-0.1-0.5-0.5-0.5-0.7c-0.2-1.2,2.3-9.5,3.2-11.9
			c0.1-0.4,0.5-0.5,0.7-0.4c0.4,0.1,0.5,0.5,0.4,0.7l0,0c-1.6,4.9-3.2,10.6-3.1,11.3c1.2,0.1,2.5-0.1,3.6-0.5
			c0.4-0.1,0.6,0.1,0.7,0.4l0,0c0.1,0.4-0.1,0.6-0.4,0.7C257.4,139.9,256.3,140.2,255.2,140.2z"/>
		<path class="st2" d="M257.8,145.1c-1.5,0-3-0.4-4.3-1.2c-0.2-0.2-0.4-0.6-0.1-0.9c0.2-0.2,0.6-0.4,0.9-0.1l0,0c0.1,0.1,4.2,3,11-2
			c0.2-0.2,0.6-0.1,0.9,0.1l0,0c0.2,0.2,0.1,0.6-0.1,0.9C263.7,143.9,260.7,145,257.8,145.1z"/>
		<path class="st2" d="M270.6,134.8c-2.6,0.1-5-1.2-6.4-3.4c-0.1-0.2,0-0.6,0.2-0.9l0,0c0.2-0.1,0.6,0,0.9,0.2l0,0
			c0.1,0.2,2.3,4.6,9.4,1.8c0.4-0.1,0.6,0,0.7,0.4s0,0.6-0.4,0.7l0,0C273.8,134.4,272.2,134.6,270.6,134.8z"/>
		<path class="st2" d="M248.8,129.2c-5.3,0-6.5-3.9-6.5-4.1c-0.1-0.4,0.1-0.6,0.5-0.7s0.6,0.1,0.7,0.4c0,0.2,1.5,4.4,8.5,2.7
			c0.4-0.1,0.7,0.1,0.7,0.5c0,0.4-0.1,0.7-0.5,0.7C251,129,249.9,129.2,248.8,129.2z"/>
		<path class="st2" d="M256.5,121.7c-0.2,0-0.5-0.2-0.6-0.5c0,0-1.2-4.1-4.3-5.4c-1.8-0.7-4.1-0.5-6.5,1c-0.2,0.1-0.6,0-0.9-0.2
			c-0.1-0.2,0-0.6,0.2-0.9c2.8-1.6,5.4-2,7.6-1c3.7,1.6,4.9,6,5,6.3C257.1,121.4,256.9,121.6,256.5,121.7L256.5,121.7z"/>
		<path class="st2" d="M269,142c-5.7,0-10.3-4.6-10.3-10.3s4.6-10.3,10.3-10.3c5.7,0,10.3,4.6,10.3,10.3l0,0
			C279.2,137.5,274.6,142,269,142z M269,122.7c-5,0-9.1,4.1-9.1,9.1c0,5,4.1,9.1,9.1,9.1s9.1-4.1,9.1-9.1l0,0
			C277.9,126.8,273.9,122.7,269,122.7L269,122.7z"/>
		<path class="st2" d="M246.7,137.7c-5.7,0-10.3-4.6-10.3-10.3s4.6-10.3,10.3-10.3s10.3,4.6,10.3,10.3l0,0
			C256.9,133,252.3,137.7,246.7,137.7z M246.7,118.3c-5,0-9.1,4.1-9.1,9.1c0,5,4.1,9.1,9.1,9.1s9.1-4.1,9.1-9.1l0,0
			C255.7,122.4,251.6,118.4,246.7,118.3z"/>
		<path class="st2" d="M278.1,134.3c-0.2,0-0.5-0.2-0.6-0.5c0-0.4,0.1-0.6,0.5-0.7l8-1.5c0.4,0,0.6,0.1,0.7,0.5
			c0,0.4-0.1,0.6-0.5,0.7L278.1,134.3L278.1,134.3z"/>
		<path class="st2" d="M237.2,125.5c-0.2,0-0.4-0.1-0.5-0.2c-0.2-0.2-0.1-0.6,0.1-0.9l3-2.2c0.2-0.2,0.6-0.1,0.9,0.1
			c0.2,0.2,0.1,0.6-0.1,0.9l-3,2.2C237.4,125.5,237.3,125.6,237.2,125.5z"/>
		<path class="st2" d="M246.7,101.9c0,0,8.6-5.3,11.6-0.2c3,5,16.7,38.1,31.6,30.7c14.9-7.4-0.1-31.8-14.5-39.5
			S249,91.7,246.7,101.9z"/>
		<path class="st2" d="M285.6,133.9c-11.3,0-21.3-19.5-25.9-28.4c-0.9-1.6-1.5-2.8-1.8-3.6c-0.5-0.9-1.4-1.5-2.3-1.7
			c-3.4-0.9-8.4,2.2-8.4,2.2c-0.2,0.1-0.6,0.1-0.9-0.2c-0.1-0.1-0.1-0.2-0.1-0.5c1.1-5,4.4-9.2,9.1-11.3c6-2.7,13.3-2.1,20.4,1.7
			c10,5.4,21.1,19.5,20.9,30.3c0.1,4.4-2.5,8.5-6.5,10.3C288.8,133.5,287.2,133.9,285.6,133.9z M254.2,98.8c0.5,0,1.1,0,1.6,0.1
			c1.4,0.2,2.5,1.1,3.1,2.2c0.5,0.7,1.1,2,2,3.7c5,9.9,16.7,32.9,28.9,26.7c3.6-1.6,5.9-5.3,5.8-9.2c0.1-10.3-10.6-23.9-20.3-29.2
			c-6.9-3.7-13.8-4.3-19.5-1.7c-3.8,1.7-6.8,5-8.1,9.1C249.7,99.7,251.8,99,254.2,98.8z"/>
		<path class="st7" d="M244.7,100.9L244.7,100.9c-0.4,0-0.6-0.2-0.6-0.6c0.2-2,1.4-3.8,3.1-4.8c3.2-2.1,8.1,2.1,8.4,2.2
			c0.2,0.2,0.2,0.6,0.1,0.9c-0.2,0.2-0.6,0.2-0.9,0.1c-1.2-1.1-4.9-3.4-6.9-2.2c-1.4,0.7-2.3,2.1-2.6,3.7
			C245.4,100.5,245.2,100.8,244.7,100.9C244.8,100.9,244.8,100.9,244.7,100.9z"/>
		<path class="st7" d="M294.1,125.8H294c-1.4-0.4-2.6-1-3.7-1.7c-0.2-0.1-0.4-0.5-0.2-0.9c0.1-0.2,0.5-0.4,0.9-0.2l0,0
			c1.1,0.6,2.2,1.2,3.4,1.5c0.4,0,0.6,0.4,0.5,0.7C294.7,125.5,294.5,125.9,294.1,125.8L294.1,125.8z"/>
		<path class="st7" d="M285.3,119.1c-0.2,0-0.4-0.1-0.5-0.2c-2.6-3.8-4.9-7.8-6.8-11.9c-2.2-4.7-4.8-9.1-7.5-13.5
			c-3.2-4.9-6.5-7.6-10-7.9c-2.6-0.1-5,0.9-6.9,2.7c-0.2,0.2-0.6,0.2-0.9,0l0,0c-0.2-0.2-0.2-0.6,0-0.9l0,0c2.1-2.1,4.9-3.3,7.9-3.2
			c3.8,0.4,7.5,3.2,11,8.4c2.7,4.4,5.3,8.9,7.6,13.5c2,4.1,4.2,8,6.8,11.7c0.2,0.2,0.1,0.6-0.1,0.9
			C285.7,119,285.6,119.1,285.3,119.1z"/>
		<path class="st7" d="M279.7,122.3c-0.1,0-0.2-0.1-0.4-0.1c-3.2-3.1-7.9-3.8-11.8-1.8c-0.2,0.1-0.6,0-0.9-0.2
			c-0.1-0.2,0-0.6,0.2-0.9l0,0c4.4-2.2,9.7-1.4,13.3,2.1c0.2,0.2,0.2,0.6,0,0.9C279.9,122.2,279.8,122.3,279.7,122.3z"/>
		<path class="st2" d="M279.1,226.1c-15.4,0-25-11.7-25.1-11.8c-0.1-0.2-0.1-0.7,0.2-0.9c0.2-0.1,0.5-0.1,0.7,0.1
			c0.1,0.1,9.2,11.3,24.1,11.3c0.4,0,0.6,0.2,0.6,0.6S279.4,226.1,279.1,226.1z"/>
	</g>
	<g id="freepik--Floor--inject-3">
		<path class="st2" d="M458,452.9H33c-0.4,0-0.6-0.2-0.6-0.6s0.2-0.6,0.6-0.6h425c0.4,0,0.6,0.2,0.6,0.6
			C458.6,452.6,458.4,452.9,458,452.9z"/>
	</g>
</g>
</svg>
